IBM Plex Thai Looped-Bold.ufo
<glyph name="Z" format="1">
  <advance width="607"/>
  <unicode hex="005A"/>
  <outline>
    <contour>
      <point x="568" y="135" type="line" name="hr00"/>
      <point x="215" y="135" type="line"/>
      <point x="560" y="563" type="line"/>
      <point x="560" y="698" type="line"/>
      <point x="56" y="698" type="line"/>
      <point x="56" y="563" type="line"/>
      <point x="383" y="563" type="line"/>
      <point x="39" y="135" type="line"/>
      <point x="39" y="0" type="line"/>
      <point x="568" y="0" type="line"/>
    </contour>
    <contour>
      <point x="303.0" y="0.0" type="move" name="bottom"/>
    </contour>
    <contour>
      <point x="303.0" y="698.0" type="move" name="top"/>
    </contour>
  </outline>
</glyph>
<glyph name="florin" format="1">
  <advance width="484"/>
  <unicode hex="0192"/>
  <outline>
    <contour>
      <point x="5" y="-134" type="line" name="hr00"/>
      <point x="111" y="-134" type="line" smooth="yes"/>
      <point x="218" y="-134"/>
      <point x="274" y="-71"/>
      <point x="283" y="17" type="curve" smooth="yes"/>
      <point x="307" y="251" type="line"/>
      <point x="434" y="251" type="line"/>
      <point x="444" y="371" type="line"/>
      <point x="319" y="371" type="line"/>
      <point x="341" y="583" type="line"/>
      <point x="460" y="583" type="line"/>
      <point x="472" y="698" type="line"/>
      <point x="362" y="698" type="line" smooth="yes"/>
      <point x="256" y="698"/>
      <point x="199" y="634"/>
      <point x="190" y="546" type="curve" smooth="yes"/>
      <point x="172" y="371" type="line"/>
      <point x="66" y="371" type="line"/>
      <point x="54" y="251" type="line"/>
      <point x="160" y="251" type="line"/>
      <point x="132" y="-19" type="line"/>
      <point x="17" y="-19" type="line"/>
    </contour>
  </outline>
</glyph>
<glyph name="khoKhuat-thai" format="1">
  <advance width="694"/>
  <unicode hex="0E03"/>
  <outline>
    <contour>
      <point x="377" y="-12" type="curve" smooth="yes"/>
      <point x="516" y="-12"/>
      <point x="612" y="63"/>
      <point x="612" y="191" type="curve" smooth="yes"/>
      <point x="612" y="554" type="line"/>
      <point x="464" y="554" type="line"/>
      <point x="464" y="190" type="line" smooth="yes"/>
      <point x="464" y="139"/>
      <point x="429" y="101"/>
      <point x="377" y="101" type="curve" smooth="yes"/>
      <point x="328" y="101"/>
      <point x="292" y="135"/>
      <point x="292" y="180" type="curve" smooth="yes"/>
      <point x="292" y="202" type="line" smooth="yes"/>
      <point x="292" y="248"/>
      <point x="315" y="282"/>
      <point x="340" y="318" type="curve" smooth="yes"/>
      <point x="368" y="358"/>
      <point x="397" y="403"/>
      <point x="397" y="470" type="curve" smooth="yes" name="hr01"/>
      <point x="397" y="554" type="line"/>
      <point x="282" y="554" type="line"/>
      <point x="282" y="504" type="line" smooth="yes"/>
      <point x="282" y="471"/>
      <point x="266" y="447"/>
      <point x="243" y="432" type="curve"/>
      <point x="241" y="434" type="line"/>
      <point x="245" y="443"/>
      <point x="248" y="453"/>
      <point x="248" y="464" type="curve" smooth="yes"/>
      <point x="248" y="521"/>
      <point x="205" y="566"/>
      <point x="139" y="566" type="curve" smooth="yes" name="hr02"/>
      <point x="71" y="566"/>
      <point x="21" y="522"/>
      <point x="21" y="451" type="curve" smooth="yes"/>
      <point x="21" y="380"/>
      <point x="71" y="336"/>
      <point x="139" y="336" type="curve" smooth="yes"/>
      <point x="205" y="336"/>
      <point x="257" y="375"/>
      <point x="289" y="422" type="curve"/>
      <point x="296" y="418" type="line"/>
      <point x="279" y="383"/>
      <point x="252" y="357"/>
      <point x="226" y="330" type="curve" smooth="yes"/>
      <point x="186" y="288"/>
      <point x="144" y="248"/>
      <point x="144" y="179" type="curve" smooth="yes"/>
      <point x="144" y="58"/>
      <point x="242" y="-12"/>
    </contour>
    <contour>
      <point x="140" y="406" type="curve" smooth="yes"/>
      <point x="116" y="406"/>
      <point x="100" y="424"/>
      <point x="100" y="451" type="curve" smooth="yes"/>
      <point x="100" y="478"/>
      <point x="116" y="496"/>
      <point x="140" y="496" type="curve" smooth="yes"/>
      <point x="164" y="496"/>
      <point x="180" y="478"/>
      <point x="180" y="451" type="curve" smooth="yes" name="hr03"/>
      <point x="180" y="424"/>
      <point x="164" y="406"/>
    </contour>
    <contour>
      <point x="612.0" y="0.0" type="move" name="bottomright"/>
    </contour>
    <contour>
      <point x="397.0" y="558.0" type="move" name="top"/>
    </contour>
    <contour>
      <point x="612.0" y="600.0" type="move" name="topright"/>
    </contour>
  </outline>
</glyph>
<glyph name="thoPhuthao-thai" format="1">
  <advance width="1043"/>
  <unicode hex="0E12"/>
  <outline>
    <contour>
      <point x="563" y="-12" type="curve" smooth="yes"/>
      <point x="625" y="-12"/>
      <point x="672" y="19"/>
      <point x="689" y="71" type="curve"/>
      <point x="818" y="0" type="line" name="hr01"/>
      <point x="959" y="0" type="line"/>
      <point x="959" y="554" type="line"/>
      <point x="811" y="554" type="line"/>
      <point x="811" y="117" type="line"/>
      <point x="805" y="117" type="line"/>
      <point x="676" y="187" type="line"/>
      <point x="676" y="405" type="line" smooth="yes"/>
      <point x="676" y="506"/>
      <point x="599" y="566"/>
      <point x="478" y="566" type="curve"/>
      <point x="378" y="486" type="line"/>
      <point x="278" y="566" type="line"/>
      <point x="157" y="566"/>
      <point x="80" y="506"/>
      <point x="80" y="405" type="curve" smooth="yes"/>
      <point x="80" y="0" type="line"/>
      <point x="331" y="0" type="line"/>
      <point x="431" y="124" type="line"/>
      <point x="431" y="112" type="line" smooth="yes"/>
      <point x="431" y="37"/>
      <point x="486" y="-12"/>
    </contour>
    <contour>
      <point x="228" y="385" type="line" smooth="yes"/>
      <point x="228" y="424"/>
      <point x="246" y="444"/>
      <point x="272" y="452" type="curve"/>
      <point x="378" y="370" type="line"/>
      <point x="484" y="452" type="line"/>
      <point x="510" y="444"/>
      <point x="528" y="424"/>
      <point x="528" y="385" type="curve" smooth="yes"/>
      <point x="528" y="271" type="line" smooth="yes"/>
      <point x="528" y="256"/>
      <point x="530" y="244"/>
      <point x="533" y="233" type="curve"/>
      <point x="517" y="230"/>
      <point x="502" y="225"/>
      <point x="488" y="217" type="curve"/>
      <point x="491" y="229"/>
      <point x="493" y="240"/>
      <point x="493" y="251" type="curve" smooth="yes"/>
      <point x="493" y="315"/>
      <point x="444" y="358"/>
      <point x="378" y="358" type="curve" smooth="yes"/>
      <point x="312" y="358"/>
      <point x="263" y="315"/>
      <point x="263" y="251" type="curve" smooth="yes"/>
      <point x="263" y="203"/>
      <point x="290" y="167"/>
      <point x="331" y="152" type="curve"/>
      <point x="307" y="128" type="line"/>
      <point x="276" y="90" type="line" name="hr03"/>
      <point x="228" y="90" type="line"/>
    </contour>
    <contour>
      <point x="563" y="59" type="curve" smooth="yes" name="hr04"/>
      <point x="531" y="59"/>
      <point x="513" y="79"/>
      <point x="513" y="104" type="curve" smooth="yes"/>
      <point x="513" y="120" type="line" smooth="yes"/>
      <point x="513" y="145"/>
      <point x="531" y="165"/>
      <point x="563" y="165" type="curve" smooth="yes"/>
      <point x="595" y="165"/>
      <point x="613" y="145"/>
      <point x="613" y="120" type="curve" smooth="yes"/>
      <point x="613" y="104" type="line" smooth="yes"/>
      <point x="613" y="79"/>
      <point x="595" y="59"/>
    </contour>
    <contour>
      <point x="378" y="207" type="curve" smooth="yes"/>
      <point x="352" y="207"/>
      <point x="337" y="225"/>
      <point x="337" y="251" type="curve" smooth="yes"/>
      <point x="337" y="277"/>
      <point x="352" y="295"/>
      <point x="378" y="295" type="curve" smooth="yes"/>
      <point x="404" y="295"/>
      <point x="419" y="277"/>
      <point x="419" y="251" type="curve" smooth="yes" name="hr05"/>
      <point x="419" y="225"/>
      <point x="404" y="207"/>
    </contour>
    <contour>
      <point x="959.0" y="0.0" type="move" name="bottomright"/>
    </contour>
    <contour>
      <point x="602.0" y="558.0" type="move" name="top"/>
    </contour>
    <contour>
      <point x="959.0" y="600.0" type="move" name="topright"/>
    </contour>
  </outline>
</glyph>
<glyph name="toTao-thai" format="1">
  <advance width="756"/>
  <unicode hex="0E15"/>
  <outline>
    <contour>
      <point x="80" y="0" type="line" name="hr00"/>
      <point x="335" y="0" type="line"/>
      <point x="452" y="134" type="line" smooth="yes"/>
      <point x="482" y="168"/>
      <point x="493" y="206"/>
      <point x="493" y="236" type="curve" smooth="yes"/>
      <point x="493" y="300"/>
      <point x="444" y="343"/>
      <point x="378" y="343" type="curve" smooth="yes"/>
      <point x="312" y="343"/>
      <point x="263" y="300"/>
      <point x="263" y="236" type="curve" smooth="yes"/>
      <point x="263" y="189"/>
      <point x="289" y="154"/>
      <point x="329" y="138" type="curve"/>
      <point x="300" y="113" type="line"/>
      <point x="280" y="90" type="line"/>
      <point x="228" y="90" type="line"/>
      <point x="228" y="385" type="line" smooth="yes"/>
      <point x="228" y="424"/>
      <point x="246" y="444"/>
      <point x="272" y="452" type="curve"/>
      <point x="378" y="370" type="line"/>
      <point x="484" y="452" type="line"/>
      <point x="510" y="444"/>
      <point x="528" y="424"/>
      <point x="528" y="385" type="curve" smooth="yes"/>
      <point x="528" y="0" type="line"/>
      <point x="676" y="0" type="line"/>
      <point x="676" y="405" type="line" smooth="yes"/>
      <point x="676" y="506"/>
      <point x="599" y="566"/>
      <point x="478" y="566" type="curve"/>
      <point x="378" y="486" type="line"/>
      <point x="278" y="566" type="line"/>
      <point x="157" y="566"/>
      <point x="80" y="506"/>
      <point x="80" y="405" type="curve" smooth="yes"/>
    </contour>
    <contour>
      <point x="378" y="192" type="curve" smooth="yes"/>
      <point x="352" y="192"/>
      <point x="337" y="210"/>
      <point x="337" y="236" type="curve" smooth="yes"/>
      <point x="337" y="262"/>
      <point x="352" y="280"/>
      <point x="378" y="280" type="curve" smooth="yes"/>
      <point x="404" y="280"/>
      <point x="419" y="262"/>
      <point x="419" y="236" type="curve" smooth="yes"/>
      <point x="419" y="210"/>
      <point x="404" y="192"/>
    </contour>
    <contour>
      <point x="676.0" y="0.0" type="move" name="bottomright"/>
    </contour>
    <contour>
      <point x="378.0" y="558.0" type="move" name="top"/>
    </contour>
    <contour>
      <point x="676.0" y="600.0" type="move" name="topright"/>
    </contour>
  </outline>
</glyph>
<glyph name="loChula-thai" format="1">
  <advance width="790"/>
  <unicode hex="0E2C"/>
  <outline>
    <contour>
      <point x="140" y="0" type="line"/>
      <point x="330" y="0" type="line"/>
      <point x="421" y="251" type="line"/>
      <point x="425" y="251" type="line"/>
      <point x="516" y="0" type="line"/>
      <point x="644" y="0" type="line" smooth="yes"/>
      <point x="687" y="0"/>
      <point x="706" y="27"/>
      <point x="706" y="66" type="curve" smooth="yes"/>
      <point x="706" y="457" type="line" smooth="yes"/>
      <point x="706" y="542"/>
      <point x="696" y="604"/>
      <point x="611" y="621" type="curve"/>
      <point x="611" y="628" type="line"/>
      <point x="682" y="637"/>
      <point x="715" y="682"/>
      <point x="715" y="732" type="curve" smooth="yes" name="hr01"/>
      <point x="715" y="772" type="line"/>
      <point x="571" y="772" type="line"/>
      <point x="571" y="709" type="line" smooth="yes"/>
      <point x="571" y="662"/>
      <point x="536" y="650"/>
      <point x="495" y="650" type="curve" smooth="yes"/>
      <point x="437" y="650" type="line"/>
      <point x="437" y="554" type="line"/>
      <point x="495" y="554" type="line" smooth="yes"/>
      <point x="543" y="554"/>
      <point x="558" y="533"/>
      <point x="558" y="469" type="curve" smooth="yes" name="hr02"/>
      <point x="558" y="268" type="line"/>
      <point x="559" y="116" type="line"/>
      <point x="554" y="116" type="line"/>
      <point x="458" y="382" type="line"/>
      <point x="388" y="382" type="line"/>
      <point x="292" y="116" type="line"/>
      <point x="287" y="116" type="line"/>
      <point x="288" y="268" type="line"/>
      <point x="288" y="440" type="line" smooth="yes"/>
      <point x="288" y="518"/>
      <point x="232" y="566"/>
      <point x="156" y="566" type="curve" smooth="yes"/>
      <point x="80" y="566"/>
      <point x="24" y="520"/>
      <point x="24" y="446" type="curve" smooth="yes"/>
      <point x="24" y="377"/>
      <point x="72" y="333"/>
      <point x="140" y="327" type="curve"/>
    </contour>
    <contour>
      <point x="152" y="397" type="curve" smooth="yes"/>
      <point x="125" y="397"/>
      <point x="106" y="416"/>
      <point x="106" y="446" type="curve" smooth="yes"/>
      <point x="106" y="476"/>
      <point x="125" y="495"/>
      <point x="152" y="495" type="curve" smooth="yes"/>
      <point x="179" y="495"/>
      <point x="198" y="476"/>
      <point x="198" y="446" type="curve" smooth="yes"/>
      <point x="198" y="416"/>
      <point x="179" y="397"/>
    </contour>
    <contour>
      <point x="706.0" y="0.0" type="move" name="bottomright"/>
    </contour>
  </outline>
</glyph>
<glyph name="oAng-thai" format="1">
  <advance width="649"/>
  <unicode hex="0E2D"/>
  <outline>
    <contour>
      <point x="334" y="-12" type="curve" smooth="yes"/>
      <point x="490" y="-12"/>
      <point x="577" y="47"/>
      <point x="577" y="167" type="curve" smooth="yes"/>
      <point x="577" y="333" type="line" smooth="yes"/>
      <point x="577" y="480"/>
      <point x="484" y="566"/>
      <point x="310" y="566" type="curve" smooth="yes"/>
      <point x="166" y="566"/>
      <point x="83" y="515"/>
      <point x="40" y="455" type="curve"/>
      <point x="128" y="374" type="line"/>
      <point x="157" y="412"/>
      <point x="201" y="453"/>
      <point x="291" y="453" type="curve" smooth="yes"/>
      <point x="376" y="453"/>
      <point x="429" y="406"/>
      <point x="429" y="329" type="curve" smooth="yes"/>
      <point x="429" y="157" type="line" smooth="yes"/>
      <point x="429" y="122"/>
      <point x="407" y="101"/>
      <point x="365" y="101" type="curve" smooth="yes"/>
      <point x="303" y="101" type="line" smooth="yes"/>
      <point x="266" y="101"/>
      <point x="245" y="116"/>
      <point x="240" y="143" type="curve"/>
      <point x="308" y="148"/>
      <point x="357" y="193"/>
      <point x="357" y="263" type="curve" smooth="yes"/>
      <point x="357" y="337"/>
      <point x="302" y="383"/>
      <point x="228" y="383" type="curve" smooth="yes"/>
      <point x="144" y="383"/>
      <point x="91" y="325"/>
      <point x="91" y="240" type="curve" smooth="yes"/>
      <point x="91" y="167" type="line" smooth="yes"/>
      <point x="91" y="47"/>
      <point x="178" y="-12"/>
    </contour>
    <contour>
      <point x="230" y="214" type="curve" smooth="yes"/>
      <point x="203" y="214"/>
      <point x="183" y="233"/>
      <point x="183" y="263" type="curve" smooth="yes" name="hr01"/>
      <point x="183" y="293"/>
      <point x="203" y="312"/>
      <point x="230" y="312" type="curve" smooth="yes"/>
      <point x="257" y="312"/>
      <point x="277" y="293"/>
      <point x="277" y="263" type="curve" smooth="yes"/>
      <point x="277" y="233"/>
      <point x="257" y="214"/>
    </contour>
    <contour>
      <point x="550.0" y="0.0" type="move" name="bottomright"/>
    </contour>
    <contour>
      <point x="301.0" y="558.0" type="move" name="top"/>
    </contour>
    <contour>
      <point x="550.0" y="600.0" type="move" name="topright"/>
    </contour>
  </outline>
</glyph>
<glyph name="hoNokhuk-thai" format="1">
  <advance width="649"/>
  <unicode hex="0E2E"/>
  <outline>
    <contour>
      <point x="580" y="621" type="line"/>
      <point x="433" y="621" type="line"/>
      <point x="433" y="547" type="line"/>
      <point x="398" y="559"/>
      <point x="357" y="566"/>
      <point x="310" y="566" type="curve" smooth="yes"/>
      <point x="166" y="566"/>
      <point x="83" y="515"/>
      <point x="40" y="455" type="curve"/>
      <point x="128" y="374" type="line"/>
      <point x="157" y="412"/>
      <point x="201" y="453"/>
      <point x="291" y="453" type="curve" smooth="yes"/>
      <point x="376" y="453"/>
      <point x="429" y="406"/>
      <point x="429" y="329" type="curve" smooth="yes" name="hr01"/>
      <point x="429" y="157" type="line" smooth="yes"/>
      <point x="429" y="122"/>
      <point x="407" y="101"/>
      <point x="365" y="101" type="curve" smooth="yes"/>
      <point x="303" y="101" type="line" smooth="yes"/>
      <point x="266" y="101"/>
      <point x="245" y="116"/>
      <point x="240" y="143" type="curve"/>
      <point x="308" y="148"/>
      <point x="357" y="193"/>
      <point x="357" y="263" type="curve" smooth="yes"/>
      <point x="357" y="337"/>
      <point x="302" y="383"/>
      <point x="228" y="383" type="curve" smooth="yes"/>
      <point x="144" y="383"/>
      <point x="91" y="325"/>
      <point x="91" y="240" type="curve" smooth="yes"/>
      <point x="91" y="167" type="line" smooth="yes"/>
      <point x="91" y="47"/>
      <point x="178" y="-12"/>
      <point x="334" y="-12" type="curve" smooth="yes"/>
      <point x="490" y="-12"/>
      <point x="577" y="47"/>
      <point x="577" y="167" type="curve" smooth="yes"/>
      <point x="577" y="333" type="line" smooth="yes"/>
      <point x="577" y="393"/>
      <point x="561" y="444"/>
      <point x="530" y="482" type="curve"/>
      <point x="562" y="504"/>
      <point x="580" y="540"/>
      <point x="580" y="586" type="curve" smooth="yes" name="hr02"/>
    </contour>
    <contour>
      <point x="230" y="214" type="curve" smooth="yes"/>
      <point x="203" y="214"/>
      <point x="183" y="233"/>
      <point x="183" y="263" type="curve" smooth="yes"/>
      <point x="183" y="293"/>
      <point x="203" y="312"/>
      <point x="230" y="312" type="curve" smooth="yes"/>
      <point x="257" y="312"/>
      <point x="277" y="293"/>
      <point x="277" y="263" type="curve" smooth="yes"/>
      <point x="277" y="233"/>
      <point x="257" y="214"/>
    </contour>
    <contour>
      <point x="550.0" y="0.0" type="move" name="bottomright"/>
    </contour>
    <contour>
      <point x="263.0" y="558.0" type="move" name="top"/>
    </contour>
    <contour>
      <point x="550.0" y="600.0" type="move" name="topright"/>
    </contour>
  </outline>
</glyph>
<glyph name="maiHanaKat-thai" format="1">
  <advance width="0"/>
  <unicode hex="0E31"/>
  <outline>
    <contour>
      <point x="-105" y="641" type="curve" smooth="yes" name="hr00"/>
      <point x="74" y="641"/>
      <point x="168" y="710"/>
      <point x="168" y="871" type="curve" smooth="yes"/>
      <point x="168" y="890" type="line"/>
      <point x="23" y="890" type="line"/>
      <point x="23" y="871" type="line" smooth="yes"/>
      <point x="23" y="784"/>
      <point x="-8" y="738"/>
      <point x="-84" y="738" type="curve" smooth="yes"/>
      <point x="-128" y="738" type="line"/>
      <point x="-128" y="740" type="line"/>
      <point x="-109" y="748"/>
      <point x="-89" y="773"/>
      <point x="-89" y="811" type="curve" smooth="yes"/>
      <point x="-89" y="870"/>
      <point x="-132" y="914"/>
      <point x="-204" y="914" type="curve" smooth="yes"/>
      <point x="-276" y="914"/>
      <point x="-328" y="870"/>
      <point x="-328" y="791" type="curve" smooth="yes"/>
      <point x="-328" y="691"/>
      <point x="-249" y="641"/>
    </contour>
    <contour>
      <point x="-204" y="751" type="curve" smooth="yes"/>
      <point x="-230" y="751"/>
      <point x="-246" y="768"/>
      <point x="-246" y="797" type="curve" smooth="yes"/>
      <point x="-246" y="826"/>
      <point x="-230" y="843"/>
      <point x="-204" y="843" type="curve" smooth="yes"/>
      <point x="-178" y="843"/>
      <point x="-162" y="826"/>
      <point x="-162" y="797" type="curve" smooth="yes"/>
      <point x="-162" y="768"/>
      <point x="-178" y="751"/>
    </contour>
    <contour>
      <point x="0.0" y="600.0" type="move" name="_topright"/>
    </contour>
    <contour>
      <point x="0.0" y="880.0" type="move" name="topright"/>
    </contour>
  </outline>
</glyph>
<glyph name="saraI-thai" format="1">
  <advance width="0"/>
  <unicode hex="0E34"/>
  <outline>
    <contour>
      <point x="0" y="649" type="line" name="hr00"/>
      <point x="0" y="689" type="line" smooth="yes"/>
      <point x="0" y="819"/>
      <point x="-104" y="904"/>
      <point x="-261" y="904" type="curve" smooth="yes"/>
      <point x="-418" y="904"/>
      <point x="-522" y="819"/>
      <point x="-522" y="689" type="curve" smooth="yes"/>
      <point x="-522" y="649" type="line"/>
    </contour>
    <contour>
      <point x="-261" y="810" type="curve" smooth="yes"/>
      <point x="-182" y="810"/>
      <point x="-123" y="775"/>
      <point x="-113" y="725" type="curve"/>
      <point x="-408" y="725" type="line"/>
      <point x="-398" y="775"/>
      <point x="-339" y="810"/>
    </contour>
    <contour>
      <point x="0.0" y="600.0" type="move" name="_topright"/>
    </contour>
    <contour>
      <point x="0.0" y="860.0" type="move" name="topright"/>
    </contour>
  </outline>
</glyph>
<glyph name="saraIi-thai" format="1">
  <advance width="0"/>
  <unicode hex="0E35"/>
  <outline>
    <contour>
      <point x="-528" y="649" type="line" name="hr00"/>
      <point x="0" y="649" type="line"/>
      <point x="0" y="946" type="line"/>
      <point x="-120" y="946" type="line"/>
      <point x="-120" y="809" type="line"/>
      <point x="-123" y="809" type="line"/>
      <point x="-154" y="868"/>
      <point x="-220" y="904"/>
      <point x="-307" y="904" type="curve" smooth="yes"/>
      <point x="-440" y="904"/>
      <point x="-528" y="819"/>
      <point x="-528" y="689" type="curve" smooth="yes"/>
    </contour>
    <contour>
      <point x="-267" y="810" type="curve" smooth="yes"/>
      <point x="-188" y="810"/>
      <point x="-129" y="775"/>
      <point x="-119" y="725" type="curve"/>
      <point x="-414" y="725" type="line"/>
      <point x="-404" y="775"/>
      <point x="-345" y="810"/>
    </contour>
    <contour>
      <point x="0.0" y="600.0" type="move" name="_topright"/>
    </contour>
    <contour>
      <point x="0.0" y="910.0" type="move" name="topright"/>
    </contour>
  </outline>
</glyph>
<glyph name="saraUe-thai" format="1">
  <advance width="0"/>
  <unicode hex="0E36"/>
  <outline>
    <contour>
      <point x="-39" y="680" type="curve" smooth="yes"/>
      <point x="34" y="680"/>
      <point x="88" y="724"/>
      <point x="88" y="795" type="curve" smooth="yes"/>
      <point x="88" y="866"/>
      <point x="34" y="910"/>
      <point x="-39" y="910" type="curve" smooth="yes"/>
      <point x="-91" y="910"/>
      <point x="-133" y="887"/>
      <point x="-153" y="849" type="curve"/>
      <point x="-189" y="884"/>
      <point x="-242" y="904"/>
      <point x="-307" y="904" type="curve" smooth="yes" name="hr01"/>
      <point x="-440" y="904"/>
      <point x="-528" y="819"/>
      <point x="-528" y="689" type="curve" smooth="yes"/>
      <point x="-528" y="649" type="line"/>
      <point x="-66" y="649" type="line"/>
      <point x="-66" y="682" type="line"/>
      <point x="-57" y="680"/>
      <point x="-48" y="680"/>
    </contour>
    <contour>
      <point x="-267" y="810" type="curve" smooth="yes"/>
      <point x="-227" y="810"/>
      <point x="-191" y="801"/>
      <point x="-165" y="785" type="curve"/>
      <point x="-164" y="761"/>
      <point x="-156" y="741"/>
      <point x="-143" y="725" type="curve" name="hr03"/>
      <point x="-414" y="725" type="line"/>
      <point x="-404" y="775"/>
      <point x="-345" y="810"/>
    </contour>
    <contour>
      <point x="-39" y="746" type="curve" smooth="yes" name="hr04"/>
      <point x="-66" y="746"/>
      <point x="-85" y="765"/>
      <point x="-85" y="795" type="curve" smooth="yes"/>
      <point x="-85" y="825"/>
      <point x="-66" y="844"/>
      <point x="-39" y="844" type="curve" smooth="yes"/>
      <point x="-12" y="844"/>
      <point x="7" y="825"/>
      <point x="7" y="795" type="curve" smooth="yes"/>
      <point x="7" y="765"/>
      <point x="-12" y="746"/>
    </contour>
    <contour>
      <point x="0.0" y="600.0" type="move" name="_topright"/>
    </contour>
    <contour>
      <point x="0.0" y="880.0" type="move" name="topright"/>
    </contour>
  </outline>
</glyph>
<glyph name="saraUee-thai" format="1">
  <advance width="0"/>
  <unicode hex="0E37"/>
  <outline>
    <contour>
      <point x="-528" y="649" type="line" name="hr00"/>
      <point x="0" y="649" type="line"/>
      <point x="0" y="946" type="line"/>
      <point x="-120" y="946" type="line"/>
      <point x="-120" y="808" type="line"/>
      <point x="-124" y="808" type="line"/>
      <point x="-134" y="821"/>
      <point x="-145" y="833"/>
      <point x="-158" y="843" type="curve"/>
      <point x="-158" y="946" type="line"/>
      <point x="-270" y="946" type="line"/>
      <point x="-270" y="898" type="line"/>
      <point x="-288" y="902"/>
      <point x="-307" y="904"/>
      <point x="-325" y="904" type="curve" smooth="yes"/>
      <point x="-438" y="904"/>
      <point x="-528" y="819"/>
      <point x="-528" y="689" type="curve" smooth="yes"/>
    </contour>
    <contour>
      <point x="-276" y="810" type="curve" smooth="yes"/>
      <point x="-189" y="810"/>
      <point x="-129" y="775"/>
      <point x="-119" y="725" type="curve"/>
      <point x="-415" y="725" type="line"/>
      <point x="-406" y="775"/>
      <point x="-347" y="810"/>
    </contour>
    <contour>
      <point x="0.0" y="600.0" type="move" name="_topright"/>
    </contour>
    <contour>
      <point x="0.0" y="910.0" type="move" name="topright"/>
    </contour>
  </outline>
</glyph>
<glyph name="saraU-thai" format="1">
  <advance width="0"/>
  <unicode hex="0E38"/>
  <outline>
    <contour>
      <point x="-121" y="-380" type="line"/>
      <point x="0" y="-380" type="line"/>
      <point x="0" y="-196" type="line" smooth="yes"/>
      <point x="0" y="-135"/>
      <point x="-46" y="-96"/>
      <point x="-109" y="-96" type="curve" smooth="yes"/>
      <point x="-172" y="-96"/>
      <point x="-218" y="-135"/>
      <point x="-218" y="-196" type="curve" smooth="yes"/>
      <point x="-218" y="-253"/>
      <point x="-178" y="-291"/>
      <point x="-121" y="-295" type="curve"/>
    </contour>
    <contour>
      <point x="-111" y="-233" type="curve" smooth="yes"/>
      <point x="-132" y="-233"/>
      <point x="-146" y="-221"/>
      <point x="-146" y="-196" type="curve" smooth="yes"/>
      <point x="-146" y="-171"/>
      <point x="-132" y="-159"/>
      <point x="-111" y="-159" type="curve" smooth="yes"/>
      <point x="-90" y="-159"/>
      <point x="-76" y="-171"/>
      <point x="-76" y="-196" type="curve" smooth="yes" name="hr01"/>
      <point x="-76" y="-221"/>
      <point x="-90" y="-233"/>
    </contour>
    <contour>
      <point x="0.0" y="0.0" type="move" name="_bottomright"/>
    </contour>
    <contour>
      <point x="18.0" y="-310.0" type="move" name="bottomright"/>
    </contour>
  </outline>
</glyph>
<glyph name="saraUu-thai" format="1">
  <advance width="0"/>
  <unicode hex="0E39"/>
  <outline>
    <contour>
      <point x="-216" y="-196" type="line" smooth="yes"/>
      <point x="-216" y="-135"/>
      <point x="-262" y="-96"/>
      <point x="-325" y="-96" type="curve" smooth="yes"/>
      <point x="-388" y="-96"/>
      <point x="-434" y="-135"/>
      <point x="-434" y="-196" type="curve" smooth="yes"/>
      <point x="-434" y="-257"/>
      <point x="-388" y="-296"/>
      <point x="-325" y="-296" type="curve"/>
      <point x="-324" y="-296" type="line"/>
      <point x="-324" y="-301" type="line" smooth="yes"/>
      <point x="-324" y="-348"/>
      <point x="-298" y="-381"/>
      <point x="-220" y="-381" type="curve" smooth="yes" name="hr01"/>
      <point x="-140" y="-381" type="line" smooth="yes"/>
      <point x="-44" y="-381"/>
      <point x="0" y="-314"/>
      <point x="0" y="-218" type="curve" smooth="yes"/>
      <point x="0" y="-104" type="line"/>
      <point x="-121" y="-104" type="line"/>
      <point x="-121" y="-230" type="line" smooth="yes"/>
      <point x="-121" y="-269"/>
      <point x="-134" y="-286"/>
      <point x="-169" y="-286" type="curve" smooth="yes"/>
      <point x="-216" y="-286" type="line"/>
    </contour>
    <contour>
      <point x="-327" y="-233" type="curve" smooth="yes" name="hr02"/>
      <point x="-348" y="-233"/>
      <point x="-362" y="-221"/>
      <point x="-362" y="-196" type="curve" smooth="yes"/>
      <point x="-362" y="-171"/>
      <point x="-348" y="-159"/>
      <point x="-327" y="-159" type="curve" smooth="yes"/>
      <point x="-306" y="-159"/>
      <point x="-292" y="-171"/>
      <point x="-292" y="-196" type="curve" smooth="yes"/>
      <point x="-292" y="-221"/>
      <point x="-306" y="-233"/>
    </contour>
    <contour>
      <point x="0.0" y="0.0" type="move" name="_bottomright"/>
    </contour>
    <contour>
      <point x="18.0" y="-310.0" type="move" name="bottomright"/>
    </contour>
  </outline>
</glyph>
<glyph name="phinthu-thai" format="1">
  <advance width="0"/>
  <unicode hex="0E3A"/>
  <outline>
    <contour>
      <point x="-76" y="-265" type="curve" smooth="yes" name="hr00"/>
      <point x="-10" y="-265"/>
      <point x="13" y="-234"/>
      <point x="13" y="-195" type="curve" smooth="yes"/>
      <point x="13" y="-166" type="line" smooth="yes"/>
      <point x="13" y="-127"/>
      <point x="-10" y="-96"/>
      <point x="-76" y="-96" type="curve" smooth="yes"/>
      <point x="-142" y="-96"/>
      <point x="-165" y="-127"/>
      <point x="-165" y="-166" type="curve" smooth="yes"/>
      <point x="-165" y="-195" type="line" smooth="yes"/>
      <point x="-165" y="-234"/>
      <point x="-142" y="-265"/>
    </contour>
    <contour>
      <point x="0.0" y="0.0" type="move" name="_bottomright"/>
    </contour>
    <contour>
      <point x="0.0" y="-271.0" type="move" name="bottomright"/>
    </contour>
  </outline>
</glyph>
<glyph name="saraE-thai" format="1">
  <advance width="371"/>
  <unicode hex="0E40"/>
  <outline>
    <contour>
      <point x="212" y="-12" type="curve" smooth="yes" name="hr00"/>
      <point x="288" y="-12"/>
      <point x="344" y="34"/>
      <point x="344" y="108" type="curve" smooth="yes"/>
      <point x="344" y="176"/>
      <point x="295" y="221"/>
      <point x="228" y="227" type="curve"/>
      <point x="228" y="554" type="line"/>
      <point x="80" y="554" type="line"/>
      <point x="80" y="114" type="line" smooth="yes"/>
      <point x="80" y="36"/>
      <point x="136" y="-12"/>
    </contour>
    <contour>
      <point x="216" y="59" type="curve" smooth="yes"/>
      <point x="189" y="59"/>
      <point x="170" y="78"/>
      <point x="170" y="108" type="curve" smooth="yes"/>
      <point x="170" y="138"/>
      <point x="189" y="157"/>
      <point x="216" y="157" type="curve" smooth="yes"/>
      <point x="243" y="157"/>
      <point x="262" y="138"/>
      <point x="262" y="108" type="curve" smooth="yes"/>
      <point x="262" y="78"/>
      <point x="243" y="59"/>
    </contour>
    <contour>
      <point x="283.0" y="0.0" type="move" name="bottomright"/>
    </contour>
    <contour>
      <point x="228.0" y="600.0" type="move" name="topright"/>
    </contour>
  </outline>
</glyph>
<glyph name="saraAiMaimalai-thai" format="1">
  <advance width="411"/>
  <unicode hex="0E44"/>
  <outline>
    <contour>
      <point x="252" y="-12" type="curve" smooth="yes"/>
      <point x="328" y="-12"/>
      <point x="384" y="34"/>
      <point x="384" y="108" type="curve" smooth="yes"/>
      <point x="384" y="176"/>
      <point x="335" y="221"/>
      <point x="268" y="227" type="curve"/>
      <point x="268" y="905" type="line"/>
      <point x="119" y="905" type="line"/>
      <point x="88" y="822" type="line"/>
      <point x="69" y="749" type="line"/>
      <point x="64" y="749" type="line"/>
      <point x="49" y="822" type="line"/>
      <point x="24" y="905" type="line"/>
      <point x="-91" y="905" type="line"/>
      <point x="2" y="630" type="line"/>
      <point x="85" y="630" type="line"/>
      <point x="145" y="792" type="line"/>
      <point x="155" y="792" type="line"/>
      <point x="120" y="573" type="line"/>
      <point x="120" y="114" type="line" smooth="yes"/>
      <point x="120" y="36"/>
      <point x="176" y="-12"/>
    </contour>
    <contour>
      <point x="256" y="59" type="curve" smooth="yes"/>
      <point x="229" y="59"/>
      <point x="210" y="78"/>
      <point x="210" y="108" type="curve" smooth="yes" name="hr01"/>
      <point x="210" y="138"/>
      <point x="229" y="157"/>
      <point x="256" y="157" type="curve" smooth="yes"/>
      <point x="283" y="157"/>
      <point x="302" y="138"/>
      <point x="302" y="108" type="curve" smooth="yes"/>
      <point x="302" y="78"/>
      <point x="283" y="59"/>
    </contour>
  </outline>
</glyph>
<glyph name="maitaikhu-thai" format="1">
  <advance width="0"/>
  <unicode hex="0E47"/>
  <outline>
    <contour>
      <point x="-329" y="641" type="curve" smooth="yes"/>
      <point x="-277" y="641"/>
      <point x="-240" y="668"/>
      <point x="-230" y="720" type="curve"/>
      <point x="-226" y="720" type="line"/>
      <point x="-205" y="667"/>
      <point x="-157" y="641"/>
      <point x="-94" y="641" type="curve" smooth="yes"/>
      <point x="-30" y="641"/>
      <point x="12" y="680"/>
      <point x="12" y="736" type="curve" smooth="yes"/>
      <point x="12" y="779"/>
      <point x="-14" y="812"/>
      <point x="-63" y="812" type="curve" smooth="yes"/>
      <point x="-108" y="812"/>
      <point x="-132" y="788"/>
      <point x="-132" y="757" type="curve" smooth="yes"/>
      <point x="-132" y="733"/>
      <point x="-122" y="720"/>
      <point x="-108" y="712" type="curve"/>
      <point x="-109" y="710" type="line" name="hr01"/>
      <point x="-149" y="718"/>
      <point x="-165" y="739"/>
      <point x="-172" y="783" type="curve"/>
      <point x="-243" y="783" type="line"/>
      <point x="-244" y="741"/>
      <point x="-262" y="720"/>
      <point x="-290" y="720" type="curve" smooth="yes" name="hr02"/>
      <point x="-317" y="720"/>
      <point x="-335" y="739"/>
      <point x="-335" y="771" type="curve" smooth="yes"/>
      <point x="-335" y="811"/>
      <point x="-304" y="830"/>
      <point x="-265" y="830" type="curve" smooth="yes"/>
      <point x="-92" y="830" type="line" smooth="yes"/>
      <point x="-20" y="830"/>
      <point x="1" y="868"/>
      <point x="12" y="915" type="curve" smooth="yes"/>
      <point x="23" y="960" type="line"/>
      <point x="-102" y="984" type="line"/>
      <point x="-118" y="917" type="line"/>
      <point x="-287" y="917" type="line" smooth="yes"/>
      <point x="-384" y="917"/>
      <point x="-445" y="854"/>
      <point x="-445" y="769" type="curve" smooth="yes"/>
      <point x="-445" y="681"/>
      <point x="-397" y="641"/>
    </contour>
    <contour>
      <point x="-64" y="714" type="curve" smooth="yes"/>
      <point x="-80" y="714"/>
      <point x="-91" y="724"/>
      <point x="-91" y="741" type="curve" smooth="yes"/>
      <point x="-91" y="758"/>
      <point x="-80" y="768"/>
      <point x="-64" y="768" type="curve" smooth="yes"/>
      <point x="-48" y="768"/>
      <point x="-37" y="758"/>
      <point x="-37" y="741" type="curve" smooth="yes"/>
      <point x="-37" y="724"/>
      <point x="-48" y="714"/>
    </contour>
    <contour>
      <point x="0.0" y="600.0" type="move" name="_topright"/>
    </contour>
    <contour>
      <point x="-144.0" y="873.0" type="move" name="topright"/>
    </contour>
  </outline>
</glyph>
<glyph name="maiTho-thai" format="1">
  <advance width="0"/>
  <unicode hex="0E49"/>
  <outline>
    <contour>
      <point x="-268" y="649" type="line" name="hr00"/>
      <point x="2" y="649" type="line" smooth="yes"/>
      <point x="75" y="649"/>
      <point x="101" y="667"/>
      <point x="135" y="742" type="curve" smooth="yes"/>
      <point x="188" y="860" type="line"/>
      <point x="67" y="860" type="line"/>
      <point x="23" y="728" type="line"/>
      <point x="-98" y="728" type="line"/>
      <point x="-98" y="736" type="line"/>
      <point x="-57" y="750"/>
      <point x="-36" y="781"/>
      <point x="-36" y="819" type="curve" smooth="yes"/>
      <point x="-36" y="883"/>
      <point x="-83" y="924"/>
      <point x="-158" y="924" type="curve" smooth="yes"/>
      <point x="-233" y="924"/>
      <point x="-280" y="883"/>
      <point x="-280" y="819" type="curve" smooth="yes"/>
      <point x="-280" y="774"/>
      <point x="-253" y="743"/>
      <point x="-208" y="731" type="curve"/>
      <point x="-208" y="730" type="line"/>
      <point x="-268" y="695" type="line"/>
    </contour>
    <contour>
      <point x="-158" y="774" type="curve" smooth="yes"/>
      <point x="-184" y="774"/>
      <point x="-199" y="791"/>
      <point x="-199" y="818" type="curve" smooth="yes"/>
      <point x="-199" y="845"/>
      <point x="-184" y="862"/>
      <point x="-158" y="862" type="curve" smooth="yes"/>
      <point x="-132" y="862"/>
      <point x="-117" y="845"/>
      <point x="-117" y="818" type="curve" smooth="yes"/>
      <point x="-117" y="791"/>
      <point x="-132" y="774"/>
    </contour>
    <contour>
      <point x="0.0" y="600.0" type="move" name="_topright"/>
    </contour>
    <contour>
      <point x="0.0" y="883.0" type="move" name="topright"/>
    </contour>
  </outline>
</glyph>
<glyph name="maiTri-thai" format="1">
  <advance width="0"/>
  <unicode hex="0E4A"/>
  <outline>
    <contour>
      <point x="-325" y="641" type="curve" smooth="yes"/>
      <point x="-280" y="641"/>
      <point x="-250" y="668"/>
      <point x="-250" y="710" type="curve" smooth="yes"/>
      <point x="-250" y="745"/>
      <point x="-272" y="771"/>
      <point x="-306" y="777" type="curve"/>
      <point x="-304" y="796"/>
      <point x="-292" y="803"/>
      <point x="-278" y="803" type="curve" smooth="yes"/>
      <point x="-254" y="803"/>
      <point x="-244" y="784"/>
      <point x="-240" y="753" type="curve"/>
      <point x="-180" y="753" type="line"/>
      <point x="-176" y="784"/>
      <point x="-166" y="803"/>
      <point x="-142" y="803" type="curve" smooth="yes"/>
      <point x="-125" y="803"/>
      <point x="-110" y="793"/>
      <point x="-114" y="767" type="curve" smooth="yes"/>
      <point x="-132" y="649" type="line" name="hr01"/>
      <point x="21" y="649" type="line" smooth="yes"/>
      <point x="95" y="649"/>
      <point x="128" y="679"/>
      <point x="147" y="765" type="curve" smooth="yes"/>
      <point x="168" y="860" type="line"/>
      <point x="56" y="860" type="line"/>
      <point x="36" y="728" type="line"/>
      <point x="-40" y="728" type="line"/>
      <point x="-39" y="733" type="line"/>
      <point x="-20" y="750"/>
      <point x="-10" y="783"/>
      <point x="-10" y="809" type="curve" smooth="yes"/>
      <point x="-10" y="862"/>
      <point x="-46" y="893"/>
      <point x="-103" y="893" type="curve" smooth="yes"/>
      <point x="-155" y="893"/>
      <point x="-192" y="868"/>
      <point x="-207" y="817" type="curve"/>
      <point x="-213" y="817" type="line"/>
      <point x="-227" y="867"/>
      <point x="-256" y="893"/>
      <point x="-307" y="893" type="curve" smooth="yes"/>
      <point x="-377" y="893"/>
      <point x="-414" y="844"/>
      <point x="-414" y="766" type="curve" smooth="yes"/>
      <point x="-414" y="689"/>
      <point x="-388" y="641"/>
    </contour>
    <contour>
      <point x="-327" y="683" type="curve" smooth="yes"/>
      <point x="-343" y="683"/>
      <point x="-354" y="693"/>
      <point x="-354" y="710" type="curve" smooth="yes"/>
      <point x="-354" y="727"/>
      <point x="-343" y="737"/>
      <point x="-327" y="737" type="curve" smooth="yes"/>
      <point x="-311" y="737"/>
      <point x="-300" y="727"/>
      <point x="-300" y="710" type="curve" smooth="yes"/>
      <point x="-300" y="693"/>
      <point x="-311" y="683"/>
    </contour>
    <contour>
      <point x="0.0" y="600.0" type="move" name="_topright"/>
    </contour>
    <contour>
      <point x="16.0" y="820.0" type="move" name="topright"/>
    </contour>
  </outline>
</glyph>
<glyph name="maiChattawa-thai" format="1">
  <advance width="0"/>
  <unicode hex="0E4B"/>
  <outline>
    <contour>
      <point x="72" y="739" type="line" name="hr00"/>
      <point x="72" y="845" type="line"/>
      <point x="-28" y="835" type="line"/>
      <point x="-18" y="935" type="line"/>
      <point x="-129" y="935" type="line"/>
      <point x="-119" y="835" type="line"/>
      <point x="-219" y="845" type="line"/>
      <point x="-219" y="739" type="line"/>
      <point x="-119" y="749" type="line"/>
      <point x="-129" y="649" type="line"/>
      <point x="-18" y="649" type="line"/>
      <point x="-28" y="749" type="line"/>
    </contour>
    <contour>
      <point x="0.0" y="600.0" type="move" name="_topright"/>
    </contour>
  </outline>
</glyph>
<glyph name="thanthakhat-thai" format="1">
  <advance width="0"/>
  <unicode hex="0E4C"/>
  <outline>
    <contour>
      <point x="-142" y="641" type="curve" smooth="yes"/>
      <point x="-64" y="641"/>
      <point x="-18" y="686"/>
      <point x="-18" y="744" type="curve" smooth="yes"/>
      <point x="-18" y="765"/>
      <point x="-25" y="783"/>
      <point x="-39" y="797" type="curve"/>
      <point x="-38" y="799" type="line"/>
      <point x="-30" y="797"/>
      <point x="-21" y="797"/>
      <point x="-11" y="797" type="curve" smooth="yes"/>
      <point x="41" y="797" type="line" smooth="yes"/>
      <point x="113" y="797"/>
      <point x="134" y="835"/>
      <point x="145" y="882" type="curve" smooth="yes"/>
      <point x="156" y="927" type="line"/>
      <point x="31" y="951" type="line"/>
      <point x="15" y="883" type="line"/>
      <point x="-114" y="883" type="line" smooth="yes"/>
      <point x="-207" y="883"/>
      <point x="-269" y="845"/>
      <point x="-269" y="757" type="curve" smooth="yes"/>
      <point x="-269" y="687"/>
      <point x="-213" y="641"/>
    </contour>
    <contour>
      <point x="-140" y="712" type="curve" smooth="yes"/>
      <point x="-166" y="712"/>
      <point x="-183" y="729"/>
      <point x="-183" y="759" type="curve" smooth="yes"/>
      <point x="-183" y="789"/>
      <point x="-166" y="806"/>
      <point x="-140" y="806" type="curve" smooth="yes" name="hr01"/>
      <point x="-114" y="806"/>
      <point x="-97" y="789"/>
      <point x="-97" y="759" type="curve" smooth="yes"/>
      <point x="-97" y="729"/>
      <point x="-114" y="712"/>
    </contour>
    <contour>
      <point x="0.0" y="600.0" type="move" name="_topright"/>
    </contour>
  </outline>
</glyph>
<glyph name="nikhahit-thai" format="1">
  <advance width="0"/>
  <unicode hex="0E4D"/>
  <outline>
    <contour>
      <point x="-74" y="653" type="curve" smooth="yes" name="hr00"/>
      <point x="3" y="653"/>
      <point x="58" y="699"/>
      <point x="58" y="777" type="curve" smooth="yes"/>
      <point x="58" y="855"/>
      <point x="3" y="901"/>
      <point x="-74" y="901" type="curve" smooth="yes"/>
      <point x="-151" y="901"/>
      <point x="-206" y="855"/>
      <point x="-206" y="777" type="curve" smooth="yes"/>
      <point x="-206" y="699"/>
      <point x="-151" y="653"/>
    </contour>
    <contour>
      <point x="-74" y="728" type="curve" smooth="yes"/>
      <point x="-102" y="728"/>
      <point x="-119" y="746"/>
      <point x="-119" y="769" type="curve" smooth="yes"/>
      <point x="-119" y="785" type="line" smooth="yes"/>
      <point x="-119" y="808"/>
      <point x="-102" y="826"/>
      <point x="-74" y="826" type="curve" smooth="yes"/>
      <point x="-46" y="826"/>
      <point x="-29" y="808"/>
      <point x="-29" y="785" type="curve" smooth="yes"/>
      <point x="-29" y="769" type="line" smooth="yes"/>
      <point x="-29" y="746"/>
      <point x="-46" y="728"/>
    </contour>
    <contour>
      <point x="0.0" y="600.0" type="move" name="_topright"/>
    </contour>
    <contour>
      <point x="-8.0" y="860.0" type="move" name="topright"/>
    </contour>
  </outline>
</glyph>
<glyph name="yamakkan-thai" format="1">
  <advance width="0"/>
  <unicode hex="0E4E"/>
  <outline>
    <contour>
      <point x="0" y="649" type="line"/>
      <point x="0" y="728" type="line"/>
      <point x="-39" y="728" type="line" smooth="yes"/>
      <point x="-76" y="728"/>
      <point x="-86" y="737"/>
      <point x="-86" y="754" type="curve" smooth="yes"/>
      <point x="-86" y="772"/>
      <point x="-68" y="783"/>
      <point x="-32" y="783" type="curve" smooth="yes"/>
      <point x="14" y="783" type="line"/>
      <point x="14" y="846" type="line"/>
      <point x="-9" y="846" type="line" smooth="yes"/>
      <point x="-35" y="846"/>
      <point x="-52" y="856"/>
      <point x="-52" y="872" type="curve" smooth="yes" name="hr01"/>
      <point x="-52" y="890"/>
      <point x="-35" y="901"/>
      <point x="-14" y="901" type="curve" smooth="yes"/>
      <point x="12" y="901"/>
      <point x="28" y="894"/>
      <point x="39" y="887" type="curve"/>
      <point x="65" y="958" type="line"/>
      <point x="45" y="968"/>
      <point x="9" y="978"/>
      <point x="-29" y="978" type="curve" smooth="yes"/>
      <point x="-111" y="978"/>
      <point x="-155" y="942"/>
      <point x="-155" y="897" type="curve" smooth="yes"/>
      <point x="-155" y="856"/>
      <point x="-125" y="827"/>
      <point x="-64" y="818" type="curve"/>
      <point x="-64" y="814" type="line"/>
      <point x="-163" y="814"/>
      <point x="-192" y="780"/>
      <point x="-192" y="732" type="curve" smooth="yes" name="hr02"/>
      <point x="-192" y="682"/>
      <point x="-150" y="649"/>
      <point x="-61" y="649" type="curve" smooth="yes"/>
    </contour>
    <contour>
      <point x="0.0" y="600.0" type="move" name="_topright"/>
    </contour>
  </outline>
</glyph>
<glyph name="six-thai" format="1">
  <advance width="650"/>
  <unicode hex="0E56"/>
  <outline>
    <contour>
      <point x="307" y="-12" type="curve" smooth="yes" name="hr00"/>
      <point x="483" y="-12"/>
      <point x="597" y="90"/>
      <point x="597" y="255" type="curve" smooth="yes"/>
      <point x="597" y="420"/>
      <point x="508" y="518"/>
      <point x="366" y="518" type="curve" smooth="yes"/>
      <point x="271" y="518"/>
      <point x="210" y="471"/>
      <point x="192" y="401" type="curve"/>
      <point x="184" y="401" type="line"/>
      <point x="156" y="606" type="line"/>
      <point x="19" y="606" type="line"/>
      <point x="70" y="324" type="line"/>
      <point x="192" y="324" type="line"/>
      <point x="209" y="377"/>
      <point x="254" y="413"/>
      <point x="330" y="413" type="curve" smooth="yes"/>
      <point x="396" y="413"/>
      <point x="443" y="373"/>
      <point x="443" y="305" type="curve" smooth="yes"/>
      <point x="443" y="206" type="line" smooth="yes"/>
      <point x="443" y="138"/>
      <point x="396" y="94"/>
      <point x="306" y="94" type="curve" smooth="yes"/>
      <point x="265" y="94"/>
      <point x="231" y="99"/>
      <point x="205" y="107" type="curve"/>
      <point x="205" y="111" type="line"/>
      <point x="261" y="111"/>
      <point x="302" y="151"/>
      <point x="302" y="205" type="curve" smooth="yes"/>
      <point x="302" y="260"/>
      <point x="257" y="302"/>
      <point x="193" y="302" type="curve" smooth="yes"/>
      <point x="120" y="302"/>
      <point x="71" y="254"/>
      <point x="71" y="169" type="curve" smooth="yes"/>
      <point x="71" y="47"/>
      <point x="191" y="-12"/>
    </contour>
    <contour>
      <point x="194" y="156" type="curve" smooth="yes"/>
      <point x="170" y="156"/>
      <point x="153" y="172"/>
      <point x="153" y="198" type="curve" smooth="yes"/>
      <point x="153" y="224"/>
      <point x="170" y="240"/>
      <point x="194" y="240" type="curve" smooth="yes"/>
      <point x="218" y="240"/>
      <point x="235" y="224"/>
      <point x="235" y="198" type="curve" smooth="yes"/>
      <point x="235" y="172"/>
      <point x="218" y="156"/>
    </contour>
  </outline>
</glyph>
<glyph name="nine-thai" format="1">
  <advance width="751"/>
  <unicode hex="0E59"/>
  <outline>
    <contour>
      <point x="231" y="-12" type="curve" smooth="yes"/>
      <point x="308" y="-12"/>
      <point x="363" y="35"/>
      <point x="363" y="108" type="curve" smooth="yes"/>
      <point x="363" y="182"/>
      <point x="308" y="228"/>
      <point x="243" y="228" type="curve" smooth="yes"/>
      <point x="233" y="228"/>
      <point x="223" y="227"/>
      <point x="214" y="226" type="curve"/>
      <point x="214" y="297" type="line" smooth="yes"/>
      <point x="214" y="372"/>
      <point x="226" y="413"/>
      <point x="270" y="413" type="curve" smooth="yes"/>
      <point x="309" y="413"/>
      <point x="323" y="382"/>
      <point x="345" y="311" type="curve" smooth="yes"/>
      <point x="443" y="0" type="line" name="hr01"/>
      <point x="596" y="0" type="line"/>
      <point x="500" y="292" type="line" smooth="yes"/>
      <point x="473" y="374"/>
      <point x="502" y="413"/>
      <point x="540" y="413" type="curve" smooth="yes"/>
      <point x="581" y="413"/>
      <point x="600" y="373"/>
      <point x="600" y="324" type="curve"/>
      <point x="721" y="324" type="line"/>
      <point x="770" y="606" type="line"/>
      <point x="633" y="606" type="line"/>
      <point x="613" y="411" type="line"/>
      <point x="608" y="411" type="line"/>
      <point x="605" y="476"/>
      <point x="583" y="518"/>
      <point x="519" y="518" type="curve" smooth="yes"/>
      <point x="455" y="518"/>
      <point x="419" y="467"/>
      <point x="445" y="372" type="curve"/>
      <point x="440" y="370" type="line"/>
      <point x="404" y="476"/>
      <point x="348" y="518"/>
      <point x="261" y="518" type="curve" smooth="yes"/>
      <point x="136" y="518"/>
      <point x="66" y="445"/>
      <point x="66" y="291" type="curve" smooth="yes"/>
      <point x="66" y="210" type="line" smooth="yes"/>
      <point x="66" y="59"/>
      <point x="133" y="-12"/>
    </contour>
    <contour>
      <point x="235" y="59" type="curve" smooth="yes"/>
      <point x="208" y="59"/>
      <point x="189" y="78"/>
      <point x="189" y="108" type="curve" smooth="yes"/>
      <point x="189" y="138"/>
      <point x="208" y="157"/>
      <point x="235" y="157" type="curve" smooth="yes"/>
      <point x="262" y="157"/>
      <point x="281" y="138"/>
      <point x="281" y="108" type="curve" smooth="yes"/>
      <point x="281" y="78"/>
      <point x="262" y="59"/>
    </contour>
  </outline>
</glyph>
<glyph name="khomut-thai" format="1">
  <advance width="1501"/>
  <unicode hex="0E5B"/>
  <outline>
    <contour>
      <point x="357" y="-12" type="curve" smooth="yes"/>
      <point x="514" y="-12"/>
      <point x="653" y="41"/>
      <point x="704" y="312" type="curve"/>
      <point x="707" y="312" type="line"/>
      <point x="783" y="71" type="line"/>
      <point x="895" y="71" type="line"/>
      <point x="958" y="271" type="line"/>
      <point x="961" y="271" type="line"/>
      <point x="1014" y="103" type="line"/>
      <point x="1127" y="103" type="line"/>
      <point x="1180" y="271" type="line"/>
      <point x="1183" y="271" type="line"/>
      <point x="1226" y="199"/>
      <point x="1272" y="176"/>
      <point x="1361" y="176" type="curve" smooth="yes"/>
      <point x="1434" y="176" type="line"/>
      <point x="1434" y="281" type="line"/>
      <point x="1366" y="281" type="line" smooth="yes"/>
      <point x="1267" y="281"/>
      <point x="1236" y="350"/>
      <point x="1228" y="430" type="curve"/>
      <point x="1116" y="430" type="line"/>
      <point x="1072" y="290" type="line"/>
      <point x="1069" y="290" type="line"/>
      <point x="1016" y="459" type="line"/>
      <point x="904" y="459" type="line"/>
      <point x="841" y="258" type="line"/>
      <point x="838" y="258" type="line"/>
      <point x="761" y="502" type="line"/>
      <point x="617" y="502" type="line"/>
      <point x="592" y="166"/>
      <point x="497" y="93"/>
      <point x="362" y="93" type="curve" smooth="yes"/>
      <point x="271" y="93"/>
      <point x="204" y="147"/>
      <point x="204" y="237" type="curve" smooth="yes"/>
      <point x="204" y="316" type="line" smooth="yes"/>
      <point x="204" y="403"/>
      <point x="251" y="460"/>
      <point x="334" y="460" type="curve" smooth="yes"/>
      <point x="366" y="460"/>
      <point x="393" y="456"/>
      <point x="415" y="449" type="curve"/>
      <point x="414" y="443" type="line"/>
      <point x="358" y="442"/>
      <point x="318" y="402"/>
      <point x="318" y="349" type="curve" smooth="yes"/>
      <point x="318" y="294"/>
      <point x="363" y="252"/>
      <point x="427" y="252" type="curve" smooth="yes" name="hr01"/>
      <point x="500" y="252"/>
      <point x="549" y="300"/>
      <point x="549" y="385" type="curve" smooth="yes"/>
      <point x="549" y="507"/>
      <point x="439" y="566"/>
      <point x="333" y="566" type="curve" smooth="yes"/>
      <point x="163" y="566"/>
      <point x="50" y="458"/>
      <point x="50" y="277" type="curve" smooth="yes"/>
      <point x="50" y="96"/>
      <point x="170" y="-12"/>
    </contour>
    <contour>
      <point x="426" y="314" type="curve" smooth="yes"/>
      <point x="402" y="314"/>
      <point x="385" y="330"/>
      <point x="385" y="356" type="curve" smooth="yes"/>
      <point x="385" y="382"/>
      <point x="402" y="398"/>
      <point x="426" y="398" type="curve" smooth="yes"/>
      <point x="450" y="398"/>
      <point x="467" y="382"/>
      <point x="467" y="356" type="curve" smooth="yes"/>
      <point x="467" y="330"/>
      <point x="450" y="314"/>
    </contour>
  </outline>
</glyph>
<glyph name="angkhansaam-thai" format="1">
  <advance width="1099"/>
  <unicode hex="EC01"/>
  <outline>
    <contour>
      <point x="630" y="0" type="line"/>
      <point x="778" y="0" type="line"/>
      <point x="778" y="273" type="line"/>
      <point x="825" y="288"/>
      <point x="852" y="317"/>
      <point x="862" y="347" type="curve"/>
      <point x="867" y="347" type="line"/>
      <point x="867" y="0" type="line"/>
      <point x="1015" y="0" type="line"/>
      <point x="1015" y="554" type="line"/>
      <point x="867" y="554" type="line"/>
      <point x="867" y="469" type="line" smooth="yes"/>
      <point x="867" y="390"/>
      <point x="822" y="368"/>
      <point x="778" y="363" type="curve"/>
      <point x="778" y="554" type="line"/>
      <point x="630" y="554" type="line"/>
      <point x="630" y="469" type="line" smooth="yes"/>
      <point x="630" y="390"/>
      <point x="585" y="368"/>
      <point x="541" y="363" type="curve"/>
      <point x="541" y="554" type="line"/>
      <point x="393" y="554" type="line"/>
      <point x="393" y="469" type="line" smooth="yes"/>
      <point x="393" y="372"/>
      <point x="325" y="362"/>
      <point x="274" y="362" type="curve" smooth="yes"/>
      <point x="224" y="362" type="line"/>
      <point x="224" y="363" type="line"/>
      <point x="267" y="371"/>
      <point x="297" y="396"/>
      <point x="297" y="452" type="curve" smooth="yes"/>
      <point x="297" y="521"/>
      <point x="243" y="566"/>
      <point x="167" y="566" type="curve" smooth="yes" name="hr01"/>
      <point x="91" y="566"/>
      <point x="35" y="516"/>
      <point x="35" y="435" type="curve" smooth="yes"/>
      <point x="35" y="428" type="line" smooth="yes"/>
      <point x="35" y="321"/>
      <point x="109" y="261"/>
      <point x="222" y="261" type="curve" smooth="yes"/>
      <point x="322" y="261"/>
      <point x="373" y="303"/>
      <point x="388" y="347" type="curve"/>
      <point x="393" y="347" type="line"/>
      <point x="393" y="0" type="line"/>
      <point x="541" y="0" type="line"/>
      <point x="541" y="273" type="line"/>
      <point x="588" y="288"/>
      <point x="615" y="317"/>
      <point x="625" y="347" type="curve"/>
      <point x="630" y="347" type="line"/>
    </contour>
    <contour>
      <point x="171" y="397" type="curve" smooth="yes"/>
      <point x="144" y="397"/>
      <point x="125" y="416"/>
      <point x="125" y="446" type="curve" smooth="yes"/>
      <point x="125" y="476"/>
      <point x="144" y="495"/>
      <point x="171" y="495" type="curve" smooth="yes"/>
      <point x="198" y="495"/>
      <point x="217" y="476"/>
      <point x="217" y="446" type="curve" smooth="yes"/>
      <point x="217" y="416"/>
      <point x="198" y="397"/>
    </contour>
  </outline>
</glyph>
<glyph name="paiyannoi_wisanchani-thai" format="1">
  <advance width="655"/>
  <unicode hex="EC02"/>
  <outline>
    <contour>
      <point x="596" y="103" type="line"/>
      <point x="596" y="208" type="line"/>
      <point x="541" y="208" type="line"/>
      <point x="541" y="554" type="line"/>
      <point x="393" y="554" type="line"/>
      <point x="393" y="469" type="line" smooth="yes"/>
      <point x="393" y="401"/>
      <point x="329" y="392"/>
      <point x="278" y="392" type="curve"/>
      <point x="290" y="406"/>
      <point x="297" y="425"/>
      <point x="297" y="452" type="curve" smooth="yes"/>
      <point x="297" y="521"/>
      <point x="243" y="566"/>
      <point x="167" y="566" type="curve" smooth="yes" name="hr01"/>
      <point x="91" y="566"/>
      <point x="35" y="517"/>
      <point x="35" y="440" type="curve" smooth="yes"/>
      <point x="35" y="438" type="line" smooth="yes"/>
      <point x="35" y="341"/>
      <point x="109" y="291"/>
      <point x="222" y="291" type="curve" smooth="yes"/>
      <point x="322" y="291"/>
      <point x="373" y="333"/>
      <point x="388" y="377" type="curve"/>
      <point x="393" y="377" type="line"/>
      <point x="393" y="208" type="line"/>
      <point x="345" y="208" type="line" smooth="yes"/>
      <point x="318" y="208"/>
      <point x="306" y="220"/>
      <point x="306" y="241" type="curve" smooth="yes"/>
      <point x="306" y="260" type="line"/>
      <point x="161" y="260" type="line"/>
      <point x="161" y="231" type="line" smooth="yes"/>
      <point x="161" y="141"/>
      <point x="219" y="103"/>
      <point x="327" y="103" type="curve" smooth="yes"/>
      <point x="393" y="103" type="line"/>
      <point x="393" y="0" type="line"/>
      <point x="541" y="0" type="line"/>
      <point x="541" y="103" type="line"/>
    </contour>
    <contour>
      <point x="171" y="397" type="curve" smooth="yes"/>
      <point x="144" y="397"/>
      <point x="125" y="416"/>
      <point x="125" y="446" type="curve" smooth="yes"/>
      <point x="125" y="476"/>
      <point x="144" y="495"/>
      <point x="171" y="495" type="curve" smooth="yes"/>
      <point x="198" y="495"/>
      <point x="217" y="476"/>
      <point x="217" y="446" type="curve" smooth="yes" name="hr02"/>
      <point x="217" y="416"/>
      <point x="198" y="397"/>
    </contour>
  </outline>
</glyph>
<glyph name="unalome-thai" format="1">
  <advance width="788"/>
  <unicode hex="EC0B"/>
  <outline>
    <contour>
      <point x="405" y="-12" type="curve" smooth="yes"/>
      <point x="595" y="-12"/>
      <point x="725" y="62"/>
      <point x="725" y="217" type="curve" smooth="yes"/>
      <point x="725" y="322"/>
      <point x="666" y="378"/>
      <point x="575" y="378" type="curve" smooth="yes"/>
      <point x="505" y="378"/>
      <point x="458" y="336"/>
      <point x="458" y="270" type="curve" smooth="yes"/>
      <point x="458" y="207"/>
      <point x="505" y="167"/>
      <point x="562" y="167" type="curve" smooth="yes"/>
      <point x="578" y="167"/>
      <point x="593" y="169"/>
      <point x="605" y="174" type="curve"/>
      <point x="598" y="126"/>
      <point x="531" y="94"/>
      <point x="405" y="94" type="curve" smooth="yes"/>
      <point x="274" y="94"/>
      <point x="219" y="146"/>
      <point x="219" y="226" type="curve" smooth="yes"/>
      <point x="219" y="305" type="line" smooth="yes"/>
      <point x="219" y="388"/>
      <point x="313" y="458"/>
      <point x="622" y="462" type="curve"/>
      <point x="622" y="595" type="line"/>
      <point x="329" y="668" type="line"/>
      <point x="329" y="670" type="line"/>
      <point x="576" y="732" type="line"/>
      <point x="576" y="840" type="line"/>
      <point x="391" y="886" type="line"/>
      <point x="391" y="888" type="line"/>
      <point x="471" y="896"/>
      <point x="525" y="923"/>
      <point x="525" y="1030" type="curve" smooth="yes" name="hr01"/>
      <point x="525" y="1067" type="line"/>
      <point x="401" y="1067" type="line"/>
      <point x="401" y="1039" type="line" smooth="yes"/>
      <point x="401" y="958"/>
      <point x="370" y="943"/>
      <point x="236" y="919" type="curve"/>
      <point x="236" y="832" type="line"/>
      <point x="423" y="785" type="line"/>
      <point x="423" y="783" type="line"/>
      <point x="176" y="721" type="line"/>
      <point x="176" y="613" type="line"/>
      <point x="437" y="548" type="line"/>
      <point x="437" y="545" type="line"/>
      <point x="149" y="511"/>
      <point x="65" y="402"/>
      <point x="65" y="261" type="curve" smooth="yes"/>
      <point x="65" y="96"/>
      <point x="184" y="-12"/>
    </contour>
    <contour>
      <point x="572" y="227" type="curve" smooth="yes"/>
      <point x="548" y="227"/>
      <point x="530" y="245"/>
      <point x="530" y="272" type="curve" smooth="yes" name="hr02"/>
      <point x="530" y="299"/>
      <point x="548" y="317"/>
      <point x="572" y="317" type="curve" smooth="yes"/>
      <point x="596" y="317"/>
      <point x="614" y="299"/>
      <point x="614" y="272" type="curve" smooth="yes"/>
      <point x="614" y="245"/>
      <point x="596" y="227"/>
    </contour>
  </outline>
</glyph>
<glyph name="four-thai.sups" format="1">
  <advance width="459"/>
  <outline>
    <contour>
      <point x="248" y="321" type="curve" name="hr00"/>
      <point x="429" y="321" type="line"/>
      <point x="429" y="411" type="line"/>
      <point x="403" y="411"/>
      <point x="378" y="432"/>
      <point x="364" y="453" type="curve"/>
      <point x="397" y="463"/>
      <point x="419" y="489"/>
      <point x="419" y="526" type="curve" smooth="yes"/>
      <point x="419" y="574"/>
      <point x="383" y="603"/>
      <point x="331" y="603" type="curve" smooth="yes"/>
      <point x="279" y="603"/>
      <point x="242" y="572"/>
      <point x="242" y="522" type="curve" smooth="yes"/>
      <point x="242" y="514" type="line" smooth="yes"/>
      <point x="242" y="471"/>
      <point x="283" y="424"/>
      <point x="322" y="415" type="curve"/>
      <point x="322" y="411" type="line"/>
      <point x="248" y="411" type="line" smooth="yes"/>
      <point x="160" y="411"/>
      <point x="147" y="453"/>
      <point x="147" y="482" type="curve" smooth="yes"/>
      <point x="147" y="522" type="line" smooth="yes"/>
      <point x="147" y="580"/>
      <point x="186" y="592"/>
      <point x="230" y="605" type="curve" smooth="yes"/>
      <point x="330" y="635" type="line" smooth="yes"/>
      <point x="387" y="652"/>
      <point x="399" y="665"/>
      <point x="406" y="723" type="curve" smooth="yes"/>
      <point x="413" y="778" type="line"/>
      <point x="299" y="778" type="line"/>
      <point x="287" y="709" type="line"/>
      <point x="174" y="676" type="line" smooth="yes"/>
      <point x="117" y="659"/>
      <point x="22" y="628"/>
      <point x="22" y="507" type="curve" smooth="yes"/>
      <point x="22" y="388"/>
      <point x="100" y="321"/>
    </contour>
    <contour>
      <point x="333" y="495" type="curve" smooth="yes"/>
      <point x="318" y="495"/>
      <point x="306" y="506"/>
      <point x="306" y="523" type="curve" smooth="yes"/>
      <point x="306" y="540"/>
      <point x="318" y="551"/>
      <point x="333" y="551" type="curve" smooth="yes"/>
      <point x="348" y="551"/>
      <point x="360" y="540"/>
      <point x="360" y="523" type="curve" smooth="yes"/>
      <point x="360" y="506"/>
      <point x="348" y="495"/>
    </contour>
  </outline>
</glyph>
<glyph name="lu_lakkhangyao-thai" format="1">
  <advance width="1050"/>
  <outline>
    <contour>
      <point x="970" y="-200" type="line"/>
      <point x="970" y="374" type="line" smooth="yes"/>
      <point x="970" y="498"/>
      <point x="893" y="566"/>
      <point x="747" y="566" type="curve" smooth="yes"/>
      <point x="659" y="566"/>
      <point x="603" y="541"/>
      <point x="562" y="499" type="curve"/>
      <point x="515" y="541"/>
      <point x="446" y="566"/>
      <point x="360" y="566" type="curve" smooth="yes"/>
      <point x="197" y="566"/>
      <point x="83" y="473"/>
      <point x="71" y="327" type="curve"/>
      <point x="159" y="291" type="line"/>
      <point x="159" y="227" type="line"/>
      <point x="91" y="221"/>
      <point x="43" y="176"/>
      <point x="43" y="108" type="curve" smooth="yes"/>
      <point x="43" y="34"/>
      <point x="99" y="-12"/>
      <point x="175" y="-12" type="curve" smooth="yes"/>
      <point x="251" y="-12"/>
      <point x="307" y="36"/>
      <point x="307" y="114" type="curve" smooth="yes"/>
      <point x="307" y="280" type="line" smooth="yes"/>
      <point x="307" y="336"/>
      <point x="286" y="350"/>
      <point x="245" y="366" type="curve" smooth="yes"/>
      <point x="208" y="380" type="line"/>
      <point x="229" y="424"/>
      <point x="281" y="460"/>
      <point x="350" y="460" type="curve" smooth="yes"/>
      <point x="441" y="460"/>
      <point x="485" y="403"/>
      <point x="485" y="313" type="curve" smooth="yes"/>
      <point x="485" y="-200" type="line"/>
      <point x="633" y="-200" type="line"/>
      <point x="633" y="332" type="line" smooth="yes"/>
      <point x="633" y="353"/>
      <point x="630" y="373"/>
      <point x="625" y="392" type="curve"/>
      <point x="648" y="424"/>
      <point x="680" y="453"/>
      <point x="736" y="453" type="curve" smooth="yes" name="hr01"/>
      <point x="796" y="453"/>
      <point x="822" y="421"/>
      <point x="822" y="370" type="curve" smooth="yes"/>
      <point x="822" y="-200" type="line"/>
    </contour>
    <contour>
      <point x="171" y="59" type="curve" smooth="yes"/>
      <point x="144" y="59"/>
      <point x="125" y="78"/>
      <point x="125" y="108" type="curve" smooth="yes"/>
      <point x="125" y="138"/>
      <point x="144" y="157"/>
      <point x="171" y="157" type="curve" smooth="yes"/>
      <point x="198" y="157"/>
      <point x="217" y="138"/>
      <point x="217" y="108" type="curve" smooth="yes"/>
      <point x="217" y="78"/>
      <point x="198" y="59"/>
    </contour>
    <contour>
      <point x="557.0" y="558.0" type="move" name="top"/>
    </contour>
  </outline>
</glyph>
<glyph name="maiChattawa-thai.small" format="1">
  <advance width="0"/>
  <outline>
    <contour>
      <point x="71" y="942" type="line" name="hr00"/>
      <point x="71" y="1030" type="line"/>
      <point x="-12" y="1022" type="line"/>
      <point x="-4" y="1094" type="line"/>
      <point x="-95" y="1094" type="line"/>
      <point x="-87" y="1022" type="line"/>
      <point x="-170" y="1030" type="line"/>
      <point x="-170" y="942" type="line"/>
      <point x="-87" y="950" type="line"/>
      <point x="-95" y="878" type="line"/>
      <point x="-4" y="878" type="line"/>
      <point x="-12" y="950" type="line"/>
    </contour>
    <contour>
      <point x="0.0" y="800.0" type="move" name="_topright"/>
    </contour>
  </outline>
</glyph>
<glyph name="maiEk-thai.small" format="1">
  <advance width="0"/>
  <outline>
    <contour>
      <point x="5" y="1038" type="line" name="hr00"/>
      <point x="-129" y="1038" type="line"/>
      <point x="-114" y="878" type="line"/>
      <point x="-10" y="878" type="line"/>
    </contour>
    <contour>
      <point x="0.0" y="800.0" type="move" name="_topright"/>
    </contour>
  </outline>
</glyph>
<glyph name="maiTho-thai.small" format="1">
  <advance width="0"/>
  <outline>
    <contour>
      <point x="-237" y="878" type="line" name="hr00"/>
      <point x="8" y="878" type="line" smooth="yes"/>
      <point x="75" y="878"/>
      <point x="98" y="895"/>
      <point x="129" y="963" type="curve" smooth="yes"/>
      <point x="177" y="1070" type="line"/>
      <point x="67" y="1070" type="line"/>
      <point x="27" y="950" type="line"/>
      <point x="-82" y="950" type="line"/>
      <point x="-82" y="957" type="line"/>
      <point x="-45" y="970"/>
      <point x="-26" y="998"/>
      <point x="-26" y="1033" type="curve" smooth="yes"/>
      <point x="-26" y="1091"/>
      <point x="-69" y="1128"/>
      <point x="-137" y="1128" type="curve" smooth="yes"/>
      <point x="-205" y="1128"/>
      <point x="-248" y="1091"/>
      <point x="-248" y="1033" type="curve" smooth="yes"/>
      <point x="-248" y="992"/>
      <point x="-224" y="963"/>
      <point x="-183" y="953" type="curve"/>
      <point x="-182" y="952" type="line"/>
      <point x="-237" y="920" type="line"/>
    </contour>
    <contour>
      <point x="-137" y="992" type="curve" smooth="yes"/>
      <point x="-160" y="992"/>
      <point x="-174" y="1007"/>
      <point x="-174" y="1032" type="curve" smooth="yes"/>
      <point x="-174" y="1057"/>
      <point x="-160" y="1072"/>
      <point x="-137" y="1072" type="curve" smooth="yes"/>
      <point x="-114" y="1072"/>
      <point x="-100" y="1057"/>
      <point x="-100" y="1032" type="curve" smooth="yes"/>
      <point x="-100" y="1007"/>
      <point x="-114" y="992"/>
    </contour>
    <contour>
      <point x="0.0" y="800.0" type="move" name="_topright"/>
    </contour>
  </outline>
</glyph>
<glyph name="maiTri-thai.narrow" format="1">
  <advance width="0"/>
  <outline>
    <contour>
      <point x="-455" y="640" type="curve" smooth="yes"/>
      <point x="-410" y="640"/>
      <point x="-380" y="667"/>
      <point x="-380" y="709" type="curve" smooth="yes"/>
      <point x="-380" y="744"/>
      <point x="-402" y="770"/>
      <point x="-436" y="776" type="curve"/>
      <point x="-435" y="795"/>
      <point x="-424" y="802"/>
      <point x="-412" y="802" type="curve" smooth="yes"/>
      <point x="-391" y="802"/>
      <point x="-382" y="783"/>
      <point x="-378" y="752" type="curve"/>
      <point x="-318" y="752" type="line"/>
      <point x="-314" y="783"/>
      <point x="-305" y="802"/>
      <point x="-284" y="802" type="curve" smooth="yes"/>
      <point x="-270" y="802"/>
      <point x="-256" y="792"/>
      <point x="-260" y="766" type="curve" smooth="yes"/>
      <point x="-278" y="648" type="line" name="hr01"/>
      <point x="-155" y="648" type="line" smooth="yes"/>
      <point x="-81" y="648"/>
      <point x="-48" y="678"/>
      <point x="-29" y="764" type="curve" smooth="yes"/>
      <point x="-8" y="859" type="line"/>
      <point x="-120" y="859" type="line"/>
      <point x="-140" y="727" type="line"/>
      <point x="-186" y="727" type="line"/>
      <point x="-185" y="732" type="line"/>
      <point x="-166" y="749"/>
      <point x="-156" y="782"/>
      <point x="-156" y="808" type="curve" smooth="yes"/>
      <point x="-156" y="861"/>
      <point x="-191" y="892"/>
      <point x="-245" y="892" type="curve" smooth="yes"/>
      <point x="-295" y="892"/>
      <point x="-331" y="867"/>
      <point x="-345" y="816" type="curve"/>
      <point x="-351" y="816" type="line"/>
      <point x="-364" y="866"/>
      <point x="-392" y="892"/>
      <point x="-441" y="892" type="curve" smooth="yes"/>
      <point x="-509" y="892"/>
      <point x="-544" y="843"/>
      <point x="-544" y="765" type="curve" smooth="yes"/>
      <point x="-544" y="688"/>
      <point x="-518" y="640"/>
    </contour>
    <contour>
      <point x="-457" y="682" type="curve" smooth="yes"/>
      <point x="-473" y="682"/>
      <point x="-484" y="692"/>
      <point x="-484" y="709" type="curve" smooth="yes"/>
      <point x="-484" y="726"/>
      <point x="-473" y="736"/>
      <point x="-457" y="736" type="curve" smooth="yes"/>
      <point x="-441" y="736"/>
      <point x="-430" y="726"/>
      <point x="-430" y="709" type="curve" smooth="yes"/>
      <point x="-430" y="692"/>
      <point x="-441" y="682"/>
    </contour>
    <contour>
      <point x="0.0" y="600.0" type="move" name="_topright"/>
    </contour>
    <contour>
      <point x="-88.0" y="800.0" type="move" name="topright"/>
    </contour>
  </outline>
</glyph>
<glyph name="maiTri-thai.small" format="1">
  <advance width="0"/>
  <outline>
    <contour>
      <point x="-302" y="871" type="curve" smooth="yes" name="hr00"/>
      <point x="-261" y="871"/>
      <point x="-234" y="895"/>
      <point x="-234" y="933" type="curve" smooth="yes"/>
      <point x="-234" y="965"/>
      <point x="-253" y="987"/>
      <point x="-285" y="993" type="curve"/>
      <point x="-284" y="1010"/>
      <point x="-272" y="1017"/>
      <point x="-260" y="1017" type="curve" smooth="yes"/>
      <point x="-238" y="1017"/>
      <point x="-229" y="1000"/>
      <point x="-225" y="972" type="curve"/>
      <point x="-171" y="972" type="line"/>
      <point x="-168" y="1000"/>
      <point x="-159" y="1017"/>
      <point x="-137" y="1017" type="curve" smooth="yes"/>
      <point x="-122" y="1017"/>
      <point x="-108" y="1008"/>
      <point x="-112" y="984" type="curve" smooth="yes"/>
      <point x="-128" y="878" type="line"/>
      <point x="9" y="878" type="line" smooth="yes"/>
      <point x="76" y="878"/>
      <point x="106" y="905"/>
      <point x="123" y="982" type="curve" smooth="yes"/>
      <point x="142" y="1068" type="line"/>
      <point x="41" y="1068" type="line"/>
      <point x="23" y="949" type="line"/>
      <point x="-45" y="949" type="line"/>
      <point x="-45" y="954" type="line"/>
      <point x="-27" y="969"/>
      <point x="-18" y="999"/>
      <point x="-18" y="1022" type="curve" smooth="yes"/>
      <point x="-18" y="1070"/>
      <point x="-51" y="1098"/>
      <point x="-102" y="1098" type="curve" smooth="yes"/>
      <point x="-149" y="1098"/>
      <point x="-182" y="1075"/>
      <point x="-196" y="1029" type="curve"/>
      <point x="-201" y="1029" type="line"/>
      <point x="-214" y="1074"/>
      <point x="-240" y="1098"/>
      <point x="-286" y="1098" type="curve" smooth="yes"/>
      <point x="-349" y="1098"/>
      <point x="-382" y="1054"/>
      <point x="-382" y="983" type="curve" smooth="yes"/>
      <point x="-382" y="914"/>
      <point x="-359" y="871"/>
    </contour>
    <contour>
      <point x="-303" y="909" type="curve" smooth="yes"/>
      <point x="-317" y="909"/>
      <point x="-327" y="918"/>
      <point x="-327" y="933" type="curve" smooth="yes"/>
      <point x="-327" y="948"/>
      <point x="-317" y="957"/>
      <point x="-303" y="957" type="curve" smooth="yes"/>
      <point x="-289" y="957"/>
      <point x="-279" y="948"/>
      <point x="-279" y="933" type="curve" smooth="yes"/>
      <point x="-279" y="918"/>
      <point x="-289" y="909"/>
    </contour>
    <contour>
      <point x="0.0" y="800.0" type="move" name="_topright"/>
    </contour>
  </outline>
</glyph>
<glyph name="maitaikhu-thai.small" format="1">
  <advance width="0"/>
  <outline>
    <contour>
      <point x="-342" y="870" type="curve" smooth="yes"/>
      <point x="-295" y="870"/>
      <point x="-262" y="894"/>
      <point x="-253" y="941" type="curve"/>
      <point x="-249" y="941" type="line"/>
      <point x="-230" y="893"/>
      <point x="-187" y="870"/>
      <point x="-130" y="870" type="curve" smooth="yes"/>
      <point x="-73" y="870"/>
      <point x="-35" y="905"/>
      <point x="-35" y="955" type="curve" smooth="yes"/>
      <point x="-35" y="994"/>
      <point x="-58" y="1024"/>
      <point x="-102" y="1024" type="curve" smooth="yes"/>
      <point x="-143" y="1024"/>
      <point x="-163" y="1002"/>
      <point x="-163" y="974" type="curve" smooth="yes"/>
      <point x="-163" y="953"/>
      <point x="-155" y="941"/>
      <point x="-143" y="934" type="curve"/>
      <point x="-144" y="932" type="line" name="hr01"/>
      <point x="-179" y="940"/>
      <point x="-194" y="959"/>
      <point x="-200" y="998" type="curve"/>
      <point x="-264" y="998" type="line"/>
      <point x="-265" y="960"/>
      <point x="-281" y="941"/>
      <point x="-307" y="941" type="curve" smooth="yes" name="hr02"/>
      <point x="-331" y="941"/>
      <point x="-347" y="958"/>
      <point x="-347" y="987" type="curve" smooth="yes"/>
      <point x="-347" y="1023"/>
      <point x="-319" y="1040"/>
      <point x="-284" y="1040" type="curve" smooth="yes"/>
      <point x="-128" y="1040" type="line" smooth="yes"/>
      <point x="-64" y="1040"/>
      <point x="-45" y="1074"/>
      <point x="-35" y="1116" type="curve" smooth="yes"/>
      <point x="-25" y="1157" type="line"/>
      <point x="-137" y="1179" type="line"/>
      <point x="-152" y="1118" type="line"/>
      <point x="-304" y="1118" type="line" smooth="yes"/>
      <point x="-391" y="1118"/>
      <point x="-446" y="1062"/>
      <point x="-446" y="985" type="curve" smooth="yes"/>
      <point x="-446" y="906"/>
      <point x="-403" y="870"/>
    </contour>
    <contour>
      <point x="-103" y="936" type="curve" smooth="yes"/>
      <point x="-118" y="936"/>
      <point x="-127" y="945"/>
      <point x="-127" y="960" type="curve" smooth="yes"/>
      <point x="-127" y="975"/>
      <point x="-118" y="984"/>
      <point x="-103" y="984" type="curve" smooth="yes"/>
      <point x="-88" y="984"/>
      <point x="-79" y="975"/>
      <point x="-79" y="960" type="curve" smooth="yes"/>
      <point x="-79" y="945"/>
      <point x="-88" y="936"/>
    </contour>
    <contour>
      <point x="0.0" y="800.0" type="move" name="_topright"/>
    </contour>
  </outline>
</glyph>
<glyph name="nikhahit-thai.small" format="1">
  <advance width="0"/>
  <outline>
    <contour>
      <point x="-78" y="869" type="curve" name="hr00"/>
      <point x="-9" y="869"/>
      <point x="41" y="911"/>
      <point x="41" y="981" type="curve" smooth="yes"/>
      <point x="41" y="1051"/>
      <point x="-9" y="1093"/>
      <point x="-78" y="1093" type="curve" smooth="yes"/>
      <point x="-147" y="1093"/>
      <point x="-197" y="1051"/>
      <point x="-197" y="981" type="curve" smooth="yes"/>
      <point x="-197" y="911"/>
      <point x="-147" y="869"/>
    </contour>
    <contour>
      <point x="-78" y="937" type="curve"/>
      <point x="-103" y="937"/>
      <point x="-119" y="952"/>
      <point x="-119" y="973" type="curve" smooth="yes"/>
      <point x="-119" y="989" type="line" smooth="yes"/>
      <point x="-119" y="1010"/>
      <point x="-103" y="1025"/>
      <point x="-78" y="1025" type="curve" smooth="yes"/>
      <point x="-53" y="1025"/>
      <point x="-37" y="1010"/>
      <point x="-37" y="989" type="curve" smooth="yes"/>
      <point x="-37" y="973" type="line" smooth="yes"/>
      <point x="-37" y="952"/>
      <point x="-53" y="937"/>
    </contour>
    <contour>
      <point x="0.0" y="800.0" type="move" name="_topright"/>
    </contour>
  </outline>
</glyph>
<glyph name="nine-thai.sups" format="1">
  <advance width="613"/>
  <outline>
    <contour>
      <point x="161" y="312" type="curve" smooth="yes"/>
      <point x="220" y="312"/>
      <point x="262" y="350"/>
      <point x="262" y="408" type="curve" smooth="yes"/>
      <point x="262" y="465"/>
      <point x="219" y="501"/>
      <point x="169" y="501" type="curve" smooth="yes"/>
      <point x="165" y="501"/>
      <point x="161" y="500"/>
      <point x="158" y="500" type="curve"/>
      <point x="158" y="548" type="line" smooth="yes"/>
      <point x="158" y="593"/>
      <point x="161" y="619"/>
      <point x="188" y="619" type="curve" smooth="yes"/>
      <point x="210" y="619"/>
      <point x="221" y="601"/>
      <point x="241" y="545" type="curve" smooth="yes"/>
      <point x="323" y="321" type="line" name="hr01"/>
      <point x="449" y="321" type="line"/>
      <point x="373" y="538" type="line" smooth="yes"/>
      <point x="355" y="588"/>
      <point x="364" y="619"/>
      <point x="389" y="619" type="curve" smooth="yes"/>
      <point x="420" y="619"/>
      <point x="431" y="582"/>
      <point x="431" y="561" type="curve"/>
      <point x="536" y="561" type="line"/>
      <point x="573" y="778" type="line"/>
      <point x="455" y="778" type="line"/>
      <point x="441" y="633" type="line"/>
      <point x="437" y="633" type="line"/>
      <point x="435" y="681"/>
      <point x="420" y="710"/>
      <point x="374" y="710" type="curve" smooth="yes"/>
      <point x="326" y="710"/>
      <point x="302" y="670"/>
      <point x="323" y="598" type="curve"/>
      <point x="319" y="596" type="line"/>
      <point x="289" y="682"/>
      <point x="246" y="710"/>
      <point x="180" y="710" type="curve" smooth="yes"/>
      <point x="85" y="710"/>
      <point x="29" y="655"/>
      <point x="29" y="536" type="curve" smooth="yes"/>
      <point x="29" y="480" type="line" smooth="yes"/>
      <point x="29" y="367"/>
      <point x="83" y="312"/>
    </contour>
    <contour>
      <point x="164" y="373" type="curve" smooth="yes"/>
      <point x="146" y="373"/>
      <point x="131" y="386"/>
      <point x="131" y="408" type="curve" smooth="yes"/>
      <point x="131" y="430"/>
      <point x="146" y="443"/>
      <point x="164" y="443" type="curve" smooth="yes"/>
      <point x="182" y="443"/>
      <point x="197" y="430"/>
      <point x="197" y="408" type="curve" smooth="yes"/>
      <point x="197" y="386"/>
      <point x="182" y="373"/>
    </contour>
  </outline>
</glyph>
<glyph name="noNu-thai_macronbelowcomb" format="1">
  <advance width="717"/>
  <outline>
    <contour>
      <point x="557" y="-12" type="curve" smooth="yes"/>
      <point x="634" y="-12"/>
      <point x="689" y="37"/>
      <point x="689" y="112" type="curve" smooth="yes"/>
      <point x="689" y="174"/>
      <point x="650" y="219"/>
      <point x="593" y="232" type="curve"/>
      <point x="602" y="247"/>
      <point x="603" y="262"/>
      <point x="603" y="275" type="curve" smooth="yes"/>
      <point x="603" y="554" type="line"/>
      <point x="455" y="554" type="line"/>
      <point x="455" y="194" type="line"/>
      <point x="294" y="115" type="line"/>
      <point x="288" y="115" type="line"/>
      <point x="288" y="440" type="line" smooth="yes"/>
      <point x="288" y="518"/>
      <point x="232" y="566"/>
      <point x="156" y="566" type="curve" smooth="yes" name="hr01"/>
      <point x="80" y="566"/>
      <point x="24" y="520"/>
      <point x="24" y="446" type="curve" smooth="yes"/>
      <point x="24" y="377"/>
      <point x="72" y="333"/>
      <point x="140" y="327" type="curve"/>
      <point x="140" y="0" type="line"/>
      <point x="282" y="0" type="line"/>
      <point x="430" y="73" type="line"/>
      <point x="446" y="20"/>
      <point x="494" y="-12"/>
    </contour>
    <contour>
      <point x="650" y="-104" type="line"/>
      <point x="115" y="-104" type="line"/>
      <point x="115" y="-207" type="line"/>
      <point x="650" y="-207" type="line"/>
    </contour>
    <contour>
      <point x="557" y="59" type="curve" smooth="yes"/>
      <point x="525" y="59"/>
      <point x="507" y="79"/>
      <point x="507" y="104" type="curve" smooth="yes"/>
      <point x="507" y="120" type="line" smooth="yes"/>
      <point x="507" y="145"/>
      <point x="525" y="165"/>
      <point x="557" y="165" type="curve" smooth="yes"/>
      <point x="589" y="165"/>
      <point x="607" y="145"/>
      <point x="607" y="120" type="curve" smooth="yes"/>
      <point x="607" y="104" type="line" smooth="yes"/>
      <point x="607" y="79"/>
      <point x="589" y="59"/>
    </contour>
    <contour>
      <point x="152" y="397" type="curve" smooth="yes"/>
      <point x="125" y="397"/>
      <point x="106" y="416"/>
      <point x="106" y="446" type="curve" smooth="yes"/>
      <point x="106" y="476"/>
      <point x="125" y="495"/>
      <point x="152" y="495" type="curve" smooth="yes"/>
      <point x="179" y="495"/>
      <point x="198" y="476"/>
      <point x="198" y="446" type="curve" smooth="yes"/>
      <point x="198" y="416"/>
      <point x="179" y="397"/>
    </contour>
    <contour>
      <point x="603.0" y="-167.0" type="move" name="bottomright"/>
    </contour>
    <contour>
      <point x="372.0" y="558.0" type="move" name="top"/>
    </contour>
    <contour>
      <point x="603.0" y="600.0" type="move" name="topright"/>
    </contour>
  </outline>
</glyph>
<glyph name="saraI-thai.narrow" format="1">
  <advance width="0"/>
  <outline>
    <contour>
      <point x="-50" y="649" type="line" name="hr00"/>
      <point x="-50" y="689" type="line" smooth="yes"/>
      <point x="-50" y="819"/>
      <point x="-146" y="904"/>
      <point x="-290" y="904" type="curve" smooth="yes"/>
      <point x="-434" y="904"/>
      <point x="-530" y="819"/>
      <point x="-530" y="689" type="curve" smooth="yes"/>
      <point x="-530" y="649" type="line"/>
    </contour>
    <contour>
      <point x="-290" y="810" type="curve" smooth="yes"/>
      <point x="-222" y="810"/>
      <point x="-172" y="775"/>
      <point x="-163" y="725" type="curve"/>
      <point x="-417" y="725" type="line"/>
      <point x="-408" y="775"/>
      <point x="-357" y="810"/>
    </contour>
    <contour>
      <point x="0.0" y="600.0" type="move" name="_topright"/>
    </contour>
    <contour>
      <point x="-50.0" y="860.0" type="move" name="topright"/>
    </contour>
  </outline>
</glyph>
<glyph name="saraIi-thai.narrow" format="1">
  <advance width="0"/>
  <outline>
    <contour>
      <point x="-536" y="649" type="line" name="hr00"/>
      <point x="-50" y="649" type="line"/>
      <point x="-50" y="946" type="line"/>
      <point x="-170" y="946" type="line"/>
      <point x="-170" y="814" type="line"/>
      <point x="-174" y="814" type="line"/>
      <point x="-203" y="870"/>
      <point x="-261" y="904"/>
      <point x="-336" y="904" type="curve" smooth="yes"/>
      <point x="-456" y="904"/>
      <point x="-536" y="819"/>
      <point x="-536" y="689" type="curve" smooth="yes"/>
    </contour>
    <contour>
      <point x="-296" y="810" type="curve" smooth="yes"/>
      <point x="-228" y="810"/>
      <point x="-178" y="775"/>
      <point x="-169" y="725" type="curve"/>
      <point x="-423" y="725" type="line"/>
      <point x="-414" y="775"/>
      <point x="-363" y="810"/>
    </contour>
    <contour>
      <point x="0.0" y="600.0" type="move" name="_topright"/>
    </contour>
    <contour>
      <point x="-50.0" y="910.0" type="move" name="topright"/>
    </contour>
  </outline>
</glyph>
<glyph name="saraUe-thai.narrow" format="1">
  <advance width="0"/>
  <outline>
    <contour>
      <point x="-130" y="680" type="curve" smooth="yes"/>
      <point x="-57" y="680"/>
      <point x="-3" y="724"/>
      <point x="-3" y="795" type="curve" smooth="yes"/>
      <point x="-3" y="866"/>
      <point x="-57" y="910"/>
      <point x="-130" y="910" type="curve" smooth="yes"/>
      <point x="-180" y="910"/>
      <point x="-221" y="889"/>
      <point x="-242" y="852" type="curve"/>
      <point x="-274" y="885"/>
      <point x="-321" y="904"/>
      <point x="-377" y="904" type="curve" smooth="yes" name="hr01"/>
      <point x="-497" y="904"/>
      <point x="-577" y="819"/>
      <point x="-577" y="689" type="curve" smooth="yes"/>
      <point x="-577" y="649" type="line"/>
      <point x="-157" y="649" type="line"/>
      <point x="-157" y="682" type="line"/>
      <point x="-148" y="680"/>
      <point x="-139" y="680"/>
    </contour>
    <contour>
      <point x="-337" y="810" type="curve" smooth="yes"/>
      <point x="-306" y="810"/>
      <point x="-278" y="802"/>
      <point x="-257" y="789" type="curve"/>
      <point x="-256" y="764"/>
      <point x="-247" y="742"/>
      <point x="-234" y="725" type="curve" name="hr03"/>
      <point x="-464" y="725" type="line"/>
      <point x="-455" y="775"/>
      <point x="-404" y="810"/>
    </contour>
    <contour>
      <point x="-130" y="746" type="curve" smooth="yes" name="hr04"/>
      <point x="-157" y="746"/>
      <point x="-176" y="765"/>
      <point x="-176" y="795" type="curve" smooth="yes"/>
      <point x="-176" y="825"/>
      <point x="-157" y="844"/>
      <point x="-130" y="844" type="curve" smooth="yes"/>
      <point x="-103" y="844"/>
      <point x="-84" y="825"/>
      <point x="-84" y="795" type="curve" smooth="yes"/>
      <point x="-84" y="765"/>
      <point x="-103" y="746"/>
    </contour>
    <contour>
      <point x="0.0" y="600.0" type="move" name="_topright"/>
    </contour>
    <contour>
      <point x="-157.0" y="880.0" type="move" name="topright"/>
    </contour>
  </outline>
</glyph>
<glyph name="saraUee-thai.narrow" format="1">
  <advance width="0"/>
  <outline>
    <contour>
      <point x="-536" y="649" type="line" name="hr00"/>
      <point x="-50" y="649" type="line"/>
      <point x="-50" y="946" type="line"/>
      <point x="-170" y="946" type="line"/>
      <point x="-170" y="808" type="line"/>
      <point x="-172" y="808" type="line"/>
      <point x="-182" y="823"/>
      <point x="-194" y="836"/>
      <point x="-208" y="848" type="curve"/>
      <point x="-208" y="946" type="line"/>
      <point x="-320" y="946" type="line"/>
      <point x="-320" y="901" type="line"/>
      <point x="-331" y="903"/>
      <point x="-342" y="904"/>
      <point x="-354" y="904" type="curve" smooth="yes"/>
      <point x="-455" y="904"/>
      <point x="-536" y="819"/>
      <point x="-536" y="689" type="curve" smooth="yes"/>
    </contour>
    <contour>
      <point x="-305" y="810" type="curve" smooth="yes"/>
      <point x="-230" y="810"/>
      <point x="-178" y="775"/>
      <point x="-169" y="725" type="curve"/>
      <point x="-423" y="725" type="line"/>
      <point x="-415" y="775"/>
      <point x="-365" y="810"/>
    </contour>
    <contour>
      <point x="0.0" y="600.0" type="move" name="_topright"/>
    </contour>
    <contour>
      <point x="-50.0" y="910.0" type="move" name="topright"/>
    </contour>
  </outline>
</glyph>
<glyph name="six-thai.sups" format="1">
  <advance width="466"/>
  <outline>
    <contour>
      <point x="220" y="312" type="curve" smooth="yes" name="hr00"/>
      <point x="350" y="312"/>
      <point x="437" y="390"/>
      <point x="437" y="512" type="curve" smooth="yes"/>
      <point x="437" y="634"/>
      <point x="372" y="710"/>
      <point x="267" y="710" type="curve" smooth="yes"/>
      <point x="195" y="710"/>
      <point x="152" y="675"/>
      <point x="141" y="625" type="curve"/>
      <point x="137" y="625" type="line"/>
      <point x="118" y="778" type="line"/>
      <point x="-1" y="778" type="line"/>
      <point x="37" y="572" type="line"/>
      <point x="143" y="572" type="line"/>
      <point x="156" y="594"/>
      <point x="188" y="619"/>
      <point x="235" y="619" type="curve" smooth="yes"/>
      <point x="282" y="619"/>
      <point x="312" y="593"/>
      <point x="312" y="554" type="curve" smooth="yes"/>
      <point x="312" y="472" type="line" smooth="yes"/>
      <point x="312" y="430"/>
      <point x="276" y="403"/>
      <point x="221" y="403" type="curve" smooth="yes"/>
      <point x="198" y="403"/>
      <point x="177" y="404"/>
      <point x="159" y="407" type="curve"/>
      <point x="159" y="408" type="line"/>
      <point x="197" y="414"/>
      <point x="222" y="443"/>
      <point x="222" y="481" type="curve" smooth="yes"/>
      <point x="222" y="523"/>
      <point x="186" y="556"/>
      <point x="136" y="556" type="curve" smooth="yes"/>
      <point x="77" y="556"/>
      <point x="38" y="518"/>
      <point x="38" y="450" type="curve" smooth="yes"/>
      <point x="38" y="353"/>
      <point x="134" y="312"/>
    </contour>
    <contour>
      <point x="136" y="445" type="curve" smooth="yes"/>
      <point x="118" y="445"/>
      <point x="107" y="457"/>
      <point x="107" y="474" type="curve" smooth="yes"/>
      <point x="107" y="491"/>
      <point x="118" y="503"/>
      <point x="136" y="503" type="curve" smooth="yes"/>
      <point x="154" y="503"/>
      <point x="165" y="491"/>
      <point x="165" y="474" type="curve" smooth="yes"/>
      <point x="165" y="457"/>
      <point x="154" y="445"/>
    </contour>
  </outline>
</glyph>
<glyph name="thanthakhat-thai.small" format="1">
  <advance width="0"/>
  <outline>
    <contour>
      <point x="-170" y="870" type="curve" smooth="yes"/>
      <point x="-100" y="870"/>
      <point x="-58" y="910"/>
      <point x="-58" y="963" type="curve" smooth="yes"/>
      <point x="-58" y="982"/>
      <point x="-64" y="997"/>
      <point x="-77" y="1009" type="curve"/>
      <point x="-76" y="1012" type="line"/>
      <point x="-68" y="1011"/>
      <point x="-60" y="1010"/>
      <point x="-52" y="1010" type="curve" smooth="yes"/>
      <point x="-5" y="1010" type="line" smooth="yes"/>
      <point x="60" y="1010"/>
      <point x="79" y="1045"/>
      <point x="89" y="1087" type="curve" smooth="yes"/>
      <point x="99" y="1127" type="line"/>
      <point x="-14" y="1149" type="line"/>
      <point x="-28" y="1088" type="line"/>
      <point x="-145" y="1088" type="line" smooth="yes"/>
      <point x="-228" y="1088"/>
      <point x="-284" y="1054"/>
      <point x="-284" y="974" type="curve" smooth="yes"/>
      <point x="-284" y="911"/>
      <point x="-234" y="870"/>
    </contour>
    <contour>
      <point x="-168" y="1018" type="curve" smooth="yes" name="hr01"/>
      <point x="-145" y="1018"/>
      <point x="-129" y="1003"/>
      <point x="-129" y="976" type="curve" smooth="yes"/>
      <point x="-129" y="949"/>
      <point x="-145" y="934"/>
      <point x="-168" y="934" type="curve" smooth="yes"/>
      <point x="-191" y="934"/>
      <point x="-207" y="949"/>
      <point x="-207" y="976" type="curve" smooth="yes"/>
      <point x="-207" y="1003"/>
      <point x="-191" y="1018"/>
    </contour>
    <contour>
      <point x="0.0" y="800.0" type="move" name="_topright"/>
    </contour>
  </outline>
</glyph>
<glyph name="toPatak-thai.short" format="1">
  <advance width="713"/>
  <outline>
    <contour>
      <point x="198" y="-251" type="curve" smooth="yes"/>
      <point x="258" y="-251"/>
      <point x="278" y="-222"/>
      <point x="299" y="-199" type="curve" smooth="yes"/>
      <point x="305" y="-192" type="line"/>
      <point x="306" y="-192" type="line"/>
      <point x="360" y="-252" type="line"/>
      <point x="435" y="-190" type="line"/>
      <point x="505" y="-245" type="line"/>
      <point x="566" y="-245" type="line" smooth="yes"/>
      <point x="604" y="-245"/>
      <point x="633" y="-219"/>
      <point x="633" y="-184" type="curve" smooth="yes"/>
      <point x="633" y="332" type="line" smooth="yes"/>
      <point x="633" y="472"/>
      <point x="530" y="566"/>
      <point x="360" y="566" type="curve" smooth="yes"/>
      <point x="197" y="566"/>
      <point x="83" y="473"/>
      <point x="71" y="327" type="curve"/>
      <point x="159" y="291" type="line"/>
      <point x="159" y="227" type="line"/>
      <point x="91" y="221"/>
      <point x="43" y="176"/>
      <point x="43" y="108" type="curve" smooth="yes"/>
      <point x="43" y="34"/>
      <point x="99" y="-12"/>
      <point x="175" y="-12" type="curve" smooth="yes"/>
      <point x="251" y="-12"/>
      <point x="307" y="36"/>
      <point x="307" y="114" type="curve" smooth="yes"/>
      <point x="307" y="280" type="line" smooth="yes"/>
      <point x="307" y="336"/>
      <point x="286" y="350"/>
      <point x="245" y="366" type="curve" smooth="yes"/>
      <point x="208" y="380" type="line"/>
      <point x="229" y="424"/>
      <point x="281" y="460"/>
      <point x="350" y="460" type="curve" smooth="yes"/>
      <point x="441" y="460"/>
      <point x="485" y="403"/>
      <point x="485" y="313" type="curve" smooth="yes"/>
      <point x="485" y="-39" type="line"/>
      <point x="500" y="-156" type="line"/>
      <point x="435" y="-107" type="line"/>
      <point x="375" y="-157" type="line"/>
      <point x="357" y="-140" type="line"/>
      <point x="432" y="-39" type="line"/>
      <point x="333" y="-39" type="line"/>
      <point x="307" y="-89" type="line"/>
      <point x="305" y="-89" type="line"/>
      <point x="299" y="-82" type="line" smooth="yes"/>
      <point x="278" y="-59"/>
      <point x="258" y="-31"/>
      <point x="198" y="-31" type="curve" smooth="yes"/>
      <point x="137" y="-31"/>
      <point x="93" y="-76"/>
      <point x="93" y="-141" type="curve" smooth="yes" name="hr01"/>
      <point x="93" y="-206"/>
      <point x="137" y="-251"/>
    </contour>
    <contour>
      <point x="171" y="59" type="curve" smooth="yes"/>
      <point x="144" y="59"/>
      <point x="125" y="78"/>
      <point x="125" y="108" type="curve" smooth="yes" name="hr02"/>
      <point x="125" y="138"/>
      <point x="144" y="157"/>
      <point x="171" y="157" type="curve" smooth="yes"/>
      <point x="198" y="157"/>
      <point x="217" y="138"/>
      <point x="217" y="108" type="curve" smooth="yes"/>
      <point x="217" y="78"/>
      <point x="198" y="59"/>
    </contour>
    <contour>
      <point x="205" y="-182" type="curve" smooth="yes"/>
      <point x="188" y="-182"/>
      <point x="177" y="-172"/>
      <point x="177" y="-151" type="curve" smooth="yes" name="hr03"/>
      <point x="177" y="-131" type="line" smooth="yes"/>
      <point x="177" y="-110"/>
      <point x="188" y="-100"/>
      <point x="205" y="-100" type="curve" smooth="yes"/>
      <point x="223" y="-100"/>
      <point x="233" y="-112"/>
      <point x="251" y="-130" type="curve" smooth="yes"/>
      <point x="261" y="-140" type="line"/>
      <point x="251" y="-151" type="line" smooth="yes"/>
      <point x="234" y="-170"/>
      <point x="223" y="-182"/>
    </contour>
    <contour>
      <point x="633.0" y="-177.0" type="move" name="bottomright"/>
    </contour>
    <contour>
      <point x="355.0" y="558.0" type="move" name="top"/>
    </contour>
    <contour>
      <point x="633.0" y="600.0" type="move" name="topright"/>
    </contour>
  </outline>
</glyph>
